<mxfile host="Electron" agent="Mozilla/5.0 (Windows NT 10.0; Win64; x64) AppleWebKit/537.36 (KHTML, like Gecko) draw.io/26.2.2 Chrome/134.0.6998.178 Electron/35.1.2 Safari/537.36" version="26.2.2">
  <diagram name="第 1 页" id="9Elp6OvVs3EVCkGjUC67">
    <mxGraphModel dx="1833" dy="963" grid="1" gridSize="10" guides="1" tooltips="1" connect="1" arrows="1" fold="1" page="1" pageScale="1" pageWidth="827" pageHeight="1169" math="0" shadow="0">
      <root>
        <mxCell id="0" />
        <mxCell id="1" parent="0" />
        <mxCell id="5HcHVTi433muCl0VbMVD-1" value="3" style="ellipse;whiteSpace=wrap;html=1;" parent="1" vertex="1">
          <mxGeometry x="315" y="20" width="20" height="20" as="geometry" />
        </mxCell>
        <mxCell id="5HcHVTi433muCl0VbMVD-2" value="clear_screen()" style="whiteSpace=wrap;html=1;" parent="1" vertex="1">
          <mxGeometry x="80" y="130" width="120" height="60" as="geometry" />
        </mxCell>
        <mxCell id="5HcHVTi433muCl0VbMVD-3" value="display_restaurant_store_details()" style="whiteSpace=wrap;html=1;" parent="1" vertex="1">
          <mxGeometry x="230" y="130" width="190" height="60" as="geometry" />
        </mxCell>
        <mxCell id="5HcHVTi433muCl0VbMVD-5" value="select ch" style="whiteSpace=wrap;html=1;" parent="1" vertex="1">
          <mxGeometry x="500" y="130" width="120" height="60" as="geometry" />
        </mxCell>
        <mxCell id="5HcHVTi433muCl0VbMVD-6" value="" style="rhombus;whiteSpace=wrap;html=1;" parent="1" vertex="1">
          <mxGeometry x="550" y="90" width="20" height="20" as="geometry" />
        </mxCell>
        <mxCell id="5HcHVTi433muCl0VbMVD-7" value="ch" style="html=1;verticalAlign=bottom;startArrow=oval;startFill=1;endArrow=block;startSize=8;curved=0;rounded=0;" parent="1" edge="1">
          <mxGeometry x="0.3333" y="20" width="60" relative="1" as="geometry">
            <mxPoint x="590" y="100" as="sourcePoint" />
            <mxPoint x="590" y="130" as="targetPoint" />
            <mxPoint as="offset" />
          </mxGeometry>
        </mxCell>
        <mxCell id="5HcHVTi433muCl0VbMVD-9" value="&amp;nbsp;track()" style="whiteSpace=wrap;html=1;" parent="1" vertex="1">
          <mxGeometry x="60" y="290" width="120" height="60" as="geometry" />
        </mxCell>
        <UserObject label="&amp;nbsp;track()" link="track(&quot;desa_ctk.txt&quot;, 2, &quot;24 Hours (Whole Day)&quot;)" id="5HcHVTi433muCl0VbMVD-10">
          <mxCell style="whiteSpace=wrap;html=1;" parent="1" vertex="1">
            <mxGeometry x="150" y="450" width="120" height="60" as="geometry" />
          </mxCell>
        </UserObject>
        <UserObject label="&amp;nbsp;track()" link="track(&quot;fun_fun.txt&quot;, 3, &quot;08:00 AM - 04:00 PM&quot;)" id="5HcHVTi433muCl0VbMVD-11">
          <mxCell style="whiteSpace=wrap;html=1;" parent="1" vertex="1">
            <mxGeometry x="240" y="305" width="100" height="30" as="geometry" />
          </mxCell>
        </UserObject>
        <UserObject label="&amp;nbsp;track()" link="track(&quot;happy_thai.txt&quot;, 5, &quot;11:00 AM - 03:00 PM / 05:00 PM - 10:00 PM&quot;)" id="5HcHVTi433muCl0VbMVD-12">
          <mxCell style="whiteSpace=wrap;html=1;" parent="1" vertex="1">
            <mxGeometry x="325" y="505" width="110" height="30" as="geometry" />
          </mxCell>
        </UserObject>
        <UserObject label="&amp;nbsp;track()" link="track(&quot;mrs_yau.txt&quot;, 7, &quot;11:15 AM - 09:30 PM&quot;)" id="5HcHVTi433muCl0VbMVD-13">
          <mxCell style="whiteSpace=wrap;html=1;" parent="1" vertex="1">
            <mxGeometry x="390" y="310" width="120" height="30" as="geometry" />
          </mxCell>
        </UserObject>
        <UserObject label="&amp;nbsp;track()" link="track(&quot;mye_mye.txt&quot;, 2, &quot;07:00 AM - 04:00 PM&quot;)" id="5HcHVTi433muCl0VbMVD-15">
          <mxCell style="whiteSpace=wrap;html=1;" parent="1" vertex="1">
            <mxGeometry x="480" y="430" width="100" height="20" as="geometry" />
          </mxCell>
        </UserObject>
        <mxCell id="5HcHVTi433muCl0VbMVD-16" value="&amp;nbsp;track()" style="whiteSpace=wrap;html=1;" parent="1" vertex="1">
          <mxGeometry x="550" y="315" width="100" height="20" as="geometry" />
        </mxCell>
        <mxCell id="5HcHVTi433muCl0VbMVD-17" value="&amp;nbsp;track()" style="whiteSpace=wrap;html=1;" parent="1" vertex="1">
          <mxGeometry x="640" y="440" width="110" height="20" as="geometry" />
        </mxCell>
        <mxCell id="5HcHVTi433muCl0VbMVD-18" value="handle invalid option()" style="whiteSpace=wrap;html=1;" parent="1" vertex="1">
          <mxGeometry x="707" y="260" width="120" height="60" as="geometry" />
        </mxCell>
        <mxCell id="5HcHVTi433muCl0VbMVD-19" value="" style="endArrow=none;html=1;rounded=0;entryX=0.5;entryY=1;entryDx=0;entryDy=0;exitX=0.5;exitY=0;exitDx=0;exitDy=0;" parent="1" source="5HcHVTi433muCl0VbMVD-3" target="5HcHVTi433muCl0VbMVD-1" edge="1">
          <mxGeometry width="50" height="50" relative="1" as="geometry">
            <mxPoint x="470" y="360" as="sourcePoint" />
            <mxPoint x="520" y="310" as="targetPoint" />
          </mxGeometry>
        </mxCell>
        <mxCell id="5HcHVTi433muCl0VbMVD-20" value="" style="endArrow=none;html=1;rounded=0;entryX=0.5;entryY=1;entryDx=0;entryDy=0;exitX=0.5;exitY=0;exitDx=0;exitDy=0;" parent="1" source="5HcHVTi433muCl0VbMVD-2" target="5HcHVTi433muCl0VbMVD-1" edge="1">
          <mxGeometry width="50" height="50" relative="1" as="geometry">
            <mxPoint x="470" y="360" as="sourcePoint" />
            <mxPoint x="520" y="310" as="targetPoint" />
            <Array as="points">
              <mxPoint x="140" y="70" />
              <mxPoint x="325" y="70" />
            </Array>
          </mxGeometry>
        </mxCell>
        <mxCell id="5HcHVTi433muCl0VbMVD-21" value="" style="endArrow=none;html=1;rounded=0;entryX=0.5;entryY=1;entryDx=0;entryDy=0;exitX=0.5;exitY=0;exitDx=0;exitDy=0;" parent="1" source="5HcHVTi433muCl0VbMVD-6" target="5HcHVTi433muCl0VbMVD-1" edge="1">
          <mxGeometry width="50" height="50" relative="1" as="geometry">
            <mxPoint x="490" y="230" as="sourcePoint" />
            <mxPoint x="540" y="180" as="targetPoint" />
            <Array as="points">
              <mxPoint x="560" y="70" />
              <mxPoint x="325" y="70" />
            </Array>
          </mxGeometry>
        </mxCell>
        <mxCell id="5HcHVTi433muCl0VbMVD-22" value="" style="endArrow=none;html=1;rounded=0;entryX=0.5;entryY=1;entryDx=0;entryDy=0;exitX=0.5;exitY=0;exitDx=0;exitDy=0;" parent="1" source="5HcHVTi433muCl0VbMVD-5" target="5HcHVTi433muCl0VbMVD-6" edge="1">
          <mxGeometry width="50" height="50" relative="1" as="geometry">
            <mxPoint x="490" y="230" as="sourcePoint" />
            <mxPoint x="540" y="180" as="targetPoint" />
          </mxGeometry>
        </mxCell>
        <mxCell id="5HcHVTi433muCl0VbMVD-23" value="" style="endArrow=none;html=1;rounded=0;entryX=0.5;entryY=1;entryDx=0;entryDy=0;exitX=0.5;exitY=0;exitDx=0;exitDy=0;" parent="1" source="5HcHVTi433muCl0VbMVD-9" target="5HcHVTi433muCl0VbMVD-5" edge="1">
          <mxGeometry width="50" height="50" relative="1" as="geometry">
            <mxPoint x="450" y="200" as="sourcePoint" />
            <mxPoint x="500" y="150" as="targetPoint" />
            <Array as="points">
              <mxPoint x="120" y="220" />
              <mxPoint x="560" y="220" />
            </Array>
          </mxGeometry>
        </mxCell>
        <mxCell id="5HcHVTi433muCl0VbMVD-24" value="" style="endArrow=none;html=1;rounded=0;entryX=0.5;entryY=1;entryDx=0;entryDy=0;exitX=0.5;exitY=0;exitDx=0;exitDy=0;" parent="1" source="5HcHVTi433muCl0VbMVD-11" target="5HcHVTi433muCl0VbMVD-5" edge="1">
          <mxGeometry width="50" height="50" relative="1" as="geometry">
            <mxPoint x="450" y="200" as="sourcePoint" />
            <mxPoint x="500" y="150" as="targetPoint" />
            <Array as="points">
              <mxPoint x="290" y="220" />
              <mxPoint x="560" y="220" />
            </Array>
          </mxGeometry>
        </mxCell>
        <mxCell id="5HcHVTi433muCl0VbMVD-25" value="" style="endArrow=none;html=1;rounded=0;entryX=0.5;entryY=1;entryDx=0;entryDy=0;exitX=0.5;exitY=0;exitDx=0;exitDy=0;" parent="1" source="5HcHVTi433muCl0VbMVD-10" target="5HcHVTi433muCl0VbMVD-5" edge="1">
          <mxGeometry width="50" height="50" relative="1" as="geometry">
            <mxPoint x="450" y="200" as="sourcePoint" />
            <mxPoint x="500" y="150" as="targetPoint" />
            <Array as="points">
              <mxPoint x="210" y="220" />
              <mxPoint x="560" y="220" />
            </Array>
          </mxGeometry>
        </mxCell>
        <mxCell id="5HcHVTi433muCl0VbMVD-26" value="" style="endArrow=none;html=1;rounded=0;entryX=0.5;entryY=1;entryDx=0;entryDy=0;exitX=0.5;exitY=0;exitDx=0;exitDy=0;" parent="1" source="5HcHVTi433muCl0VbMVD-12" target="5HcHVTi433muCl0VbMVD-5" edge="1">
          <mxGeometry width="50" height="50" relative="1" as="geometry">
            <mxPoint x="450" y="200" as="sourcePoint" />
            <mxPoint x="500" y="150" as="targetPoint" />
            <Array as="points">
              <mxPoint x="380" y="220" />
              <mxPoint x="560" y="220" />
            </Array>
          </mxGeometry>
        </mxCell>
        <mxCell id="5HcHVTi433muCl0VbMVD-27" value="" style="endArrow=none;html=1;rounded=0;entryX=0.5;entryY=1;entryDx=0;entryDy=0;exitX=0.5;exitY=0;exitDx=0;exitDy=0;" parent="1" source="5HcHVTi433muCl0VbMVD-13" target="5HcHVTi433muCl0VbMVD-5" edge="1">
          <mxGeometry width="50" height="50" relative="1" as="geometry">
            <mxPoint x="450" y="200" as="sourcePoint" />
            <mxPoint x="500" y="150" as="targetPoint" />
            <Array as="points">
              <mxPoint x="450" y="220" />
              <mxPoint x="560" y="220" />
            </Array>
          </mxGeometry>
        </mxCell>
        <mxCell id="5HcHVTi433muCl0VbMVD-28" value="" style="endArrow=none;html=1;rounded=0;entryX=0.5;entryY=1;entryDx=0;entryDy=0;exitX=0.5;exitY=0;exitDx=0;exitDy=0;" parent="1" source="5HcHVTi433muCl0VbMVD-15" target="5HcHVTi433muCl0VbMVD-5" edge="1">
          <mxGeometry width="50" height="50" relative="1" as="geometry">
            <mxPoint x="450" y="200" as="sourcePoint" />
            <mxPoint x="500" y="150" as="targetPoint" />
            <Array as="points">
              <mxPoint x="530" y="220" />
              <mxPoint x="560" y="220" />
            </Array>
          </mxGeometry>
        </mxCell>
        <mxCell id="5HcHVTi433muCl0VbMVD-29" value="" style="endArrow=none;html=1;rounded=0;entryX=0.5;entryY=1;entryDx=0;entryDy=0;exitX=0.5;exitY=0;exitDx=0;exitDy=0;" parent="1" source="5HcHVTi433muCl0VbMVD-16" target="5HcHVTi433muCl0VbMVD-5" edge="1">
          <mxGeometry width="50" height="50" relative="1" as="geometry">
            <mxPoint x="450" y="200" as="sourcePoint" />
            <mxPoint x="500" y="150" as="targetPoint" />
            <Array as="points">
              <mxPoint x="600" y="220" />
              <mxPoint x="560" y="220" />
            </Array>
          </mxGeometry>
        </mxCell>
        <mxCell id="5HcHVTi433muCl0VbMVD-30" value="" style="endArrow=none;html=1;rounded=0;entryX=0.5;entryY=1;entryDx=0;entryDy=0;exitX=0.5;exitY=0;exitDx=0;exitDy=0;" parent="1" source="5HcHVTi433muCl0VbMVD-18" target="5HcHVTi433muCl0VbMVD-5" edge="1">
          <mxGeometry width="50" height="50" relative="1" as="geometry">
            <mxPoint x="450" y="200" as="sourcePoint" />
            <mxPoint x="500" y="150" as="targetPoint" />
            <Array as="points">
              <mxPoint x="767" y="220" />
              <mxPoint x="560" y="220" />
            </Array>
          </mxGeometry>
        </mxCell>
        <mxCell id="5HcHVTi433muCl0VbMVD-31" value="" style="endArrow=none;html=1;rounded=0;entryX=0.5;entryY=1;entryDx=0;entryDy=0;exitX=0.5;exitY=0;exitDx=0;exitDy=0;" parent="1" source="5HcHVTi433muCl0VbMVD-17" target="5HcHVTi433muCl0VbMVD-5" edge="1">
          <mxGeometry width="50" height="50" relative="1" as="geometry">
            <mxPoint x="450" y="200" as="sourcePoint" />
            <mxPoint x="500" y="150" as="targetPoint" />
            <Array as="points">
              <mxPoint x="695" y="220" />
              <mxPoint x="560" y="220" />
            </Array>
          </mxGeometry>
        </mxCell>
        <mxCell id="5HcHVTi433muCl0VbMVD-32" value="" style="verticalLabelPosition=bottom;html=1;verticalAlign=top;strokeWidth=2;shape=mxgraph.lean_mapping.physical_pull;pointerEvents=1;" parent="1" vertex="1">
          <mxGeometry x="315" y="50" width="20" height="10" as="geometry" />
        </mxCell>
        <mxCell id="5HcHVTi433muCl0VbMVD-34" value="4" style="ellipse;whiteSpace=wrap;html=1;" parent="1" vertex="1">
          <mxGeometry x="1155" y="20" width="20" height="20" as="geometry" />
        </mxCell>
        <mxCell id="5HcHVTi433muCl0VbMVD-35" value="clear_screen()" style="whiteSpace=wrap;html=1;" parent="1" vertex="1">
          <mxGeometry x="920" y="130" width="120" height="60" as="geometry" />
        </mxCell>
        <mxCell id="5HcHVTi433muCl0VbMVD-36" value="display_cafe_store_details()" style="whiteSpace=wrap;html=1;" parent="1" vertex="1">
          <mxGeometry x="1070" y="130" width="190" height="60" as="geometry" />
        </mxCell>
        <mxCell id="5HcHVTi433muCl0VbMVD-37" value="select ch" style="whiteSpace=wrap;html=1;" parent="1" vertex="1">
          <mxGeometry x="1340" y="130" width="120" height="60" as="geometry" />
        </mxCell>
        <mxCell id="5HcHVTi433muCl0VbMVD-38" value="" style="rhombus;whiteSpace=wrap;html=1;" parent="1" vertex="1">
          <mxGeometry x="1390" y="90" width="20" height="20" as="geometry" />
        </mxCell>
        <mxCell id="5HcHVTi433muCl0VbMVD-39" value="ch" style="html=1;verticalAlign=bottom;startArrow=oval;startFill=1;endArrow=block;startSize=8;curved=0;rounded=0;" parent="1" edge="1">
          <mxGeometry x="0.3333" y="20" width="60" relative="1" as="geometry">
            <mxPoint x="1430" y="100" as="sourcePoint" />
            <mxPoint x="1430" y="130" as="targetPoint" />
            <mxPoint as="offset" />
          </mxGeometry>
        </mxCell>
        <mxCell id="5HcHVTi433muCl0VbMVD-40" value="&amp;nbsp;track()" style="whiteSpace=wrap;html=1;" parent="1" vertex="1">
          <mxGeometry x="900" y="340" width="120" height="60" as="geometry" />
        </mxCell>
        <UserObject label="&amp;nbsp;track()" link="track(&quot;desa_ctk.txt&quot;, 2, &quot;24 Hours (Whole Day)&quot;)" id="5HcHVTi433muCl0VbMVD-41">
          <mxCell style="whiteSpace=wrap;html=1;" parent="1" vertex="1">
            <mxGeometry x="990" y="510" width="120" height="60" as="geometry" />
          </mxCell>
        </UserObject>
        <UserObject label="&amp;nbsp;track()" link="track(&quot;fun_fun.txt&quot;, 3, &quot;08:00 AM - 04:00 PM&quot;)" id="5HcHVTi433muCl0VbMVD-42">
          <mxCell style="whiteSpace=wrap;html=1;" parent="1" vertex="1">
            <mxGeometry x="1070" y="340" width="120" height="60" as="geometry" />
          </mxCell>
        </UserObject>
        <UserObject label="&amp;nbsp;track()" link="track(&quot;happy_thai.txt&quot;, 5, &quot;11:00 AM - 03:00 PM / 05:00 PM - 10:00 PM&quot;)" id="5HcHVTi433muCl0VbMVD-43">
          <mxCell style="whiteSpace=wrap;html=1;" parent="1" vertex="1">
            <mxGeometry x="1160" y="510" width="120" height="60" as="geometry" />
          </mxCell>
        </UserObject>
        <UserObject label="&amp;nbsp;track()" link="track(&quot;mrs_yau.txt&quot;, 7, &quot;11:15 AM - 09:30 PM&quot;)" id="5HcHVTi433muCl0VbMVD-44">
          <mxCell style="whiteSpace=wrap;html=1;" parent="1" vertex="1">
            <mxGeometry x="1230" y="340" width="120" height="60" as="geometry" />
          </mxCell>
        </UserObject>
        <UserObject label="&amp;nbsp;track()" link="track(&quot;mye_mye.txt&quot;, 2, &quot;07:00 AM - 04:00 PM&quot;)" id="5HcHVTi433muCl0VbMVD-45">
          <mxCell style="whiteSpace=wrap;html=1;" parent="1" vertex="1">
            <mxGeometry x="1300" y="510" width="120" height="60" as="geometry" />
          </mxCell>
        </UserObject>
        <mxCell id="5HcHVTi433muCl0VbMVD-46" value="&amp;nbsp;track()" style="whiteSpace=wrap;html=1;" parent="1" vertex="1">
          <mxGeometry x="1380" y="340" width="120" height="60" as="geometry" />
        </mxCell>
        <mxCell id="5HcHVTi433muCl0VbMVD-48" value="handle invalid option()" style="whiteSpace=wrap;html=1;" parent="1" vertex="1">
          <mxGeometry x="1480" y="510" width="120" height="60" as="geometry" />
        </mxCell>
        <mxCell id="5HcHVTi433muCl0VbMVD-49" value="" style="endArrow=none;html=1;rounded=0;entryX=0.5;entryY=1;entryDx=0;entryDy=0;exitX=0.5;exitY=0;exitDx=0;exitDy=0;" parent="1" source="5HcHVTi433muCl0VbMVD-36" target="5HcHVTi433muCl0VbMVD-34" edge="1">
          <mxGeometry width="50" height="50" relative="1" as="geometry">
            <mxPoint x="1310" y="360" as="sourcePoint" />
            <mxPoint x="1360" y="310" as="targetPoint" />
          </mxGeometry>
        </mxCell>
        <mxCell id="5HcHVTi433muCl0VbMVD-50" value="" style="endArrow=none;html=1;rounded=0;entryX=0.5;entryY=1;entryDx=0;entryDy=0;exitX=0.5;exitY=0;exitDx=0;exitDy=0;" parent="1" source="5HcHVTi433muCl0VbMVD-35" target="5HcHVTi433muCl0VbMVD-34" edge="1">
          <mxGeometry width="50" height="50" relative="1" as="geometry">
            <mxPoint x="1310" y="360" as="sourcePoint" />
            <mxPoint x="1360" y="310" as="targetPoint" />
            <Array as="points">
              <mxPoint x="980" y="70" />
              <mxPoint x="1165" y="70" />
            </Array>
          </mxGeometry>
        </mxCell>
        <mxCell id="5HcHVTi433muCl0VbMVD-51" value="" style="endArrow=none;html=1;rounded=0;entryX=0.5;entryY=1;entryDx=0;entryDy=0;exitX=0.5;exitY=0;exitDx=0;exitDy=0;" parent="1" source="5HcHVTi433muCl0VbMVD-38" target="5HcHVTi433muCl0VbMVD-34" edge="1">
          <mxGeometry width="50" height="50" relative="1" as="geometry">
            <mxPoint x="1330" y="230" as="sourcePoint" />
            <mxPoint x="1380" y="180" as="targetPoint" />
            <Array as="points">
              <mxPoint x="1400" y="70" />
              <mxPoint x="1165" y="70" />
            </Array>
          </mxGeometry>
        </mxCell>
        <mxCell id="5HcHVTi433muCl0VbMVD-52" value="" style="endArrow=none;html=1;rounded=0;entryX=0.5;entryY=1;entryDx=0;entryDy=0;exitX=0.5;exitY=0;exitDx=0;exitDy=0;" parent="1" source="5HcHVTi433muCl0VbMVD-37" target="5HcHVTi433muCl0VbMVD-38" edge="1">
          <mxGeometry width="50" height="50" relative="1" as="geometry">
            <mxPoint x="1330" y="230" as="sourcePoint" />
            <mxPoint x="1380" y="180" as="targetPoint" />
          </mxGeometry>
        </mxCell>
        <mxCell id="5HcHVTi433muCl0VbMVD-53" value="" style="endArrow=none;html=1;rounded=0;entryX=0.5;entryY=1;entryDx=0;entryDy=0;exitX=0.5;exitY=0;exitDx=0;exitDy=0;" parent="1" source="5HcHVTi433muCl0VbMVD-40" target="5HcHVTi433muCl0VbMVD-37" edge="1">
          <mxGeometry width="50" height="50" relative="1" as="geometry">
            <mxPoint x="1290" y="200" as="sourcePoint" />
            <mxPoint x="1340" y="150" as="targetPoint" />
            <Array as="points">
              <mxPoint x="960" y="220" />
              <mxPoint x="1400" y="220" />
            </Array>
          </mxGeometry>
        </mxCell>
        <mxCell id="5HcHVTi433muCl0VbMVD-54" value="" style="endArrow=none;html=1;rounded=0;entryX=0.5;entryY=1;entryDx=0;entryDy=0;exitX=0.5;exitY=0;exitDx=0;exitDy=0;" parent="1" source="5HcHVTi433muCl0VbMVD-42" target="5HcHVTi433muCl0VbMVD-37" edge="1">
          <mxGeometry width="50" height="50" relative="1" as="geometry">
            <mxPoint x="1290" y="200" as="sourcePoint" />
            <mxPoint x="1340" y="150" as="targetPoint" />
            <Array as="points">
              <mxPoint x="1130" y="220" />
              <mxPoint x="1400" y="220" />
            </Array>
          </mxGeometry>
        </mxCell>
        <mxCell id="5HcHVTi433muCl0VbMVD-55" value="" style="endArrow=none;html=1;rounded=0;entryX=0.5;entryY=1;entryDx=0;entryDy=0;exitX=0.5;exitY=0;exitDx=0;exitDy=0;" parent="1" source="5HcHVTi433muCl0VbMVD-41" target="5HcHVTi433muCl0VbMVD-37" edge="1">
          <mxGeometry width="50" height="50" relative="1" as="geometry">
            <mxPoint x="1290" y="200" as="sourcePoint" />
            <mxPoint x="1340" y="150" as="targetPoint" />
            <Array as="points">
              <mxPoint x="1050" y="220" />
              <mxPoint x="1400" y="220" />
            </Array>
          </mxGeometry>
        </mxCell>
        <mxCell id="5HcHVTi433muCl0VbMVD-56" value="" style="endArrow=none;html=1;rounded=0;entryX=0.5;entryY=1;entryDx=0;entryDy=0;exitX=0.5;exitY=0;exitDx=0;exitDy=0;" parent="1" source="5HcHVTi433muCl0VbMVD-43" target="5HcHVTi433muCl0VbMVD-37" edge="1">
          <mxGeometry width="50" height="50" relative="1" as="geometry">
            <mxPoint x="1290" y="200" as="sourcePoint" />
            <mxPoint x="1340" y="150" as="targetPoint" />
            <Array as="points">
              <mxPoint x="1220" y="220" />
              <mxPoint x="1400" y="220" />
            </Array>
          </mxGeometry>
        </mxCell>
        <mxCell id="5HcHVTi433muCl0VbMVD-57" value="" style="endArrow=none;html=1;rounded=0;entryX=0.5;entryY=1;entryDx=0;entryDy=0;exitX=0.5;exitY=0;exitDx=0;exitDy=0;" parent="1" source="5HcHVTi433muCl0VbMVD-44" target="5HcHVTi433muCl0VbMVD-37" edge="1">
          <mxGeometry width="50" height="50" relative="1" as="geometry">
            <mxPoint x="1290" y="200" as="sourcePoint" />
            <mxPoint x="1340" y="150" as="targetPoint" />
            <Array as="points">
              <mxPoint x="1290" y="220" />
              <mxPoint x="1400" y="220" />
            </Array>
          </mxGeometry>
        </mxCell>
        <mxCell id="5HcHVTi433muCl0VbMVD-58" value="" style="endArrow=none;html=1;rounded=0;entryX=0.5;entryY=1;entryDx=0;entryDy=0;exitX=0.5;exitY=0;exitDx=0;exitDy=0;" parent="1" source="5HcHVTi433muCl0VbMVD-45" target="5HcHVTi433muCl0VbMVD-37" edge="1">
          <mxGeometry width="50" height="50" relative="1" as="geometry">
            <mxPoint x="1290" y="200" as="sourcePoint" />
            <mxPoint x="1340" y="150" as="targetPoint" />
            <Array as="points">
              <mxPoint x="1360" y="220" />
              <mxPoint x="1400" y="220" />
            </Array>
          </mxGeometry>
        </mxCell>
        <mxCell id="5HcHVTi433muCl0VbMVD-59" value="" style="endArrow=none;html=1;rounded=0;entryX=0.5;entryY=1;entryDx=0;entryDy=0;exitX=0.5;exitY=0;exitDx=0;exitDy=0;" parent="1" source="5HcHVTi433muCl0VbMVD-46" target="5HcHVTi433muCl0VbMVD-37" edge="1">
          <mxGeometry width="50" height="50" relative="1" as="geometry">
            <mxPoint x="1290" y="200" as="sourcePoint" />
            <mxPoint x="1340" y="150" as="targetPoint" />
            <Array as="points">
              <mxPoint x="1440" y="220" />
              <mxPoint x="1400" y="220" />
            </Array>
          </mxGeometry>
        </mxCell>
        <mxCell id="5HcHVTi433muCl0VbMVD-60" value="" style="endArrow=none;html=1;rounded=0;entryX=0.5;entryY=1;entryDx=0;entryDy=0;exitX=0.5;exitY=0;exitDx=0;exitDy=0;" parent="1" source="5HcHVTi433muCl0VbMVD-48" target="5HcHVTi433muCl0VbMVD-37" edge="1">
          <mxGeometry width="50" height="50" relative="1" as="geometry">
            <mxPoint x="1290" y="200" as="sourcePoint" />
            <mxPoint x="1340" y="150" as="targetPoint" />
            <Array as="points">
              <mxPoint x="1540" y="220" />
              <mxPoint x="1400" y="220" />
            </Array>
          </mxGeometry>
        </mxCell>
        <mxCell id="5HcHVTi433muCl0VbMVD-62" value="" style="verticalLabelPosition=bottom;html=1;verticalAlign=top;strokeWidth=2;shape=mxgraph.lean_mapping.physical_pull;pointerEvents=1;" parent="1" vertex="1">
          <mxGeometry x="1155" y="50" width="20" height="10" as="geometry" />
        </mxCell>
        <mxCell id="5HcHVTi433muCl0VbMVD-63" value="9" style="ellipse;whiteSpace=wrap;html=1;" parent="1" vertex="1">
          <mxGeometry x="110" y="410" width="20" height="20" as="geometry" />
        </mxCell>
        <mxCell id="5HcHVTi433muCl0VbMVD-64" value="" style="endArrow=none;html=1;rounded=0;entryX=0.5;entryY=1;entryDx=0;entryDy=0;exitX=0.5;exitY=0;exitDx=0;exitDy=0;" parent="1" source="5HcHVTi433muCl0VbMVD-63" target="5HcHVTi433muCl0VbMVD-9" edge="1">
          <mxGeometry width="50" height="50" relative="1" as="geometry">
            <mxPoint x="250" y="370" as="sourcePoint" />
            <mxPoint x="300" y="320" as="targetPoint" />
          </mxGeometry>
        </mxCell>
        <mxCell id="5HcHVTi433muCl0VbMVD-65" value="9" style="ellipse;whiteSpace=wrap;html=1;" parent="1" vertex="1">
          <mxGeometry x="200" y="540" width="20" height="20" as="geometry" />
        </mxCell>
        <mxCell id="5HcHVTi433muCl0VbMVD-66" value="" style="endArrow=none;html=1;rounded=0;entryX=0.5;entryY=1;entryDx=0;entryDy=0;exitX=0.5;exitY=0;exitDx=0;exitDy=0;" parent="1" source="5HcHVTi433muCl0VbMVD-65" edge="1">
          <mxGeometry width="50" height="50" relative="1" as="geometry">
            <mxPoint x="340" y="560" as="sourcePoint" />
            <mxPoint x="210" y="510" as="targetPoint" />
          </mxGeometry>
        </mxCell>
        <mxCell id="5HcHVTi433muCl0VbMVD-67" value="9" style="ellipse;whiteSpace=wrap;html=1;" parent="1" vertex="1">
          <mxGeometry x="280" y="350" width="20" height="20" as="geometry" />
        </mxCell>
        <mxCell id="5HcHVTi433muCl0VbMVD-68" value="" style="endArrow=none;html=1;rounded=0;entryX=0.5;entryY=1;entryDx=0;entryDy=0;exitX=0.5;exitY=0;exitDx=0;exitDy=0;" parent="1" source="5HcHVTi433muCl0VbMVD-67" target="5HcHVTi433muCl0VbMVD-11" edge="1">
          <mxGeometry width="50" height="50" relative="1" as="geometry">
            <mxPoint x="420" y="370" as="sourcePoint" />
            <mxPoint x="290" y="320" as="targetPoint" />
          </mxGeometry>
        </mxCell>
        <mxCell id="5HcHVTi433muCl0VbMVD-69" value="9" style="ellipse;whiteSpace=wrap;html=1;" parent="1" vertex="1">
          <mxGeometry x="370" y="565" width="20" height="20" as="geometry" />
        </mxCell>
        <mxCell id="5HcHVTi433muCl0VbMVD-70" value="" style="endArrow=none;html=1;rounded=0;exitX=0.5;exitY=0;exitDx=0;exitDy=0;" parent="1" source="5HcHVTi433muCl0VbMVD-69" target="5HcHVTi433muCl0VbMVD-12" edge="1">
          <mxGeometry width="50" height="50" relative="1" as="geometry">
            <mxPoint x="510" y="585" as="sourcePoint" />
            <mxPoint x="380" y="535" as="targetPoint" />
          </mxGeometry>
        </mxCell>
        <mxCell id="5HcHVTi433muCl0VbMVD-71" value="9" style="ellipse;whiteSpace=wrap;html=1;" parent="1" vertex="1">
          <mxGeometry x="440" y="350" width="20" height="20" as="geometry" />
        </mxCell>
        <mxCell id="5HcHVTi433muCl0VbMVD-72" value="" style="endArrow=none;html=1;rounded=0;exitX=0.5;exitY=0;exitDx=0;exitDy=0;" parent="1" source="5HcHVTi433muCl0VbMVD-71" target="5HcHVTi433muCl0VbMVD-13" edge="1">
          <mxGeometry width="50" height="50" relative="1" as="geometry">
            <mxPoint x="580" y="370" as="sourcePoint" />
            <mxPoint x="450" y="320" as="targetPoint" />
          </mxGeometry>
        </mxCell>
        <mxCell id="5HcHVTi433muCl0VbMVD-73" value="9" style="ellipse;whiteSpace=wrap;html=1;" parent="1" vertex="1">
          <mxGeometry x="520" y="485" width="20" height="20" as="geometry" />
        </mxCell>
        <mxCell id="5HcHVTi433muCl0VbMVD-74" value="" style="endArrow=none;html=1;rounded=0;exitX=0.5;exitY=0;exitDx=0;exitDy=0;" parent="1" source="5HcHVTi433muCl0VbMVD-73" target="5HcHVTi433muCl0VbMVD-15" edge="1">
          <mxGeometry width="50" height="50" relative="1" as="geometry">
            <mxPoint x="650" y="500" as="sourcePoint" />
            <mxPoint x="520" y="450" as="targetPoint" />
          </mxGeometry>
        </mxCell>
        <mxCell id="5HcHVTi433muCl0VbMVD-75" value="9" style="ellipse;whiteSpace=wrap;html=1;" parent="1" vertex="1">
          <mxGeometry x="590" y="350" width="20" height="20" as="geometry" />
        </mxCell>
        <mxCell id="5HcHVTi433muCl0VbMVD-76" value="" style="endArrow=none;html=1;rounded=0;entryX=0.5;entryY=1;entryDx=0;entryDy=0;exitX=0.5;exitY=0;exitDx=0;exitDy=0;" parent="1" source="5HcHVTi433muCl0VbMVD-75" target="5HcHVTi433muCl0VbMVD-16" edge="1">
          <mxGeometry width="50" height="50" relative="1" as="geometry">
            <mxPoint x="730" y="370" as="sourcePoint" />
            <mxPoint x="600" y="320" as="targetPoint" />
          </mxGeometry>
        </mxCell>
        <mxCell id="5HcHVTi433muCl0VbMVD-77" value="9" style="ellipse;whiteSpace=wrap;html=1;" parent="1" vertex="1">
          <mxGeometry x="685" y="500" width="20" height="20" as="geometry" />
        </mxCell>
        <mxCell id="5HcHVTi433muCl0VbMVD-78" value="" style="endArrow=none;html=1;rounded=0;entryX=0.5;entryY=1;entryDx=0;entryDy=0;exitX=0.5;exitY=0;exitDx=0;exitDy=0;" parent="1" source="5HcHVTi433muCl0VbMVD-77" target="5HcHVTi433muCl0VbMVD-17" edge="1">
          <mxGeometry width="50" height="50" relative="1" as="geometry">
            <mxPoint x="800" y="500" as="sourcePoint" />
            <mxPoint x="670" y="450" as="targetPoint" />
          </mxGeometry>
        </mxCell>
        <mxCell id="5HcHVTi433muCl0VbMVD-80" value="9" style="ellipse;whiteSpace=wrap;html=1;" parent="1" vertex="1">
          <mxGeometry x="2780" y="17.5" width="20" height="20" as="geometry" />
        </mxCell>
        <mxCell id="5HcHVTi433muCl0VbMVD-81" value="clear_screen()" style="whiteSpace=wrap;html=1;" parent="1" vertex="1">
          <mxGeometry x="2490" y="97.5" width="100" height="60" as="geometry" />
        </mxCell>
        <mxCell id="5HcHVTi433muCl0VbMVD-82" value="display_data()" style="whiteSpace=wrap;html=1;" parent="1" vertex="1">
          <mxGeometry x="2620" y="97.5" width="80" height="60" as="geometry" />
        </mxCell>
        <mxCell id="5HcHVTi433muCl0VbMVD-83" value="track()" style="text;html=1;align=center;verticalAlign=middle;resizable=0;points=[];autosize=1;strokeColor=none;fillColor=none;" parent="1" vertex="1">
          <mxGeometry x="2550" y="12.5" width="60" height="30" as="geometry" />
        </mxCell>
        <mxCell id="5HcHVTi433muCl0VbMVD-84" value="quit()" style="whiteSpace=wrap;html=1;" parent="1" vertex="1">
          <mxGeometry x="2720" y="217.5" width="70" height="60" as="geometry" />
        </mxCell>
        <mxCell id="5HcHVTi433muCl0VbMVD-85" value="add_data()" style="whiteSpace=wrap;html=1;" parent="1" vertex="1">
          <mxGeometry x="2818" y="217.5" width="82" height="60" as="geometry" />
        </mxCell>
        <mxCell id="cG8_wq8o6zvxuKKQntr9-1" value="&lt;span style=&quot;font-size: 12px; text-wrap-mode: wrap; background-color: rgb(236, 236, 236);&quot;&gt;&quot;ah_ma.txt&quot;, 5, &quot;06:30 AM - 09:00 PM&quot;&lt;/span&gt;" style="html=1;verticalAlign=bottom;startArrow=oval;startFill=1;endArrow=block;startSize=8;curved=0;rounded=0;" parent="1" edge="1">
          <mxGeometry x="1" y="50" width="60" relative="1" as="geometry">
            <mxPoint x="40" y="230" as="sourcePoint" />
            <mxPoint x="40" y="260" as="targetPoint" />
            <mxPoint x="-9" y="30" as="offset" />
          </mxGeometry>
        </mxCell>
        <mxCell id="cG8_wq8o6zvxuKKQntr9-3" value="&lt;span style=&quot;font-size: 12px; text-wrap-mode: wrap; background-color: rgb(236, 236, 236);&quot;&gt;&quot;desa_ctk.txt&quot;, 2, &quot;24 Hours (Whole Day)&quot;&lt;/span&gt;" style="html=1;verticalAlign=bottom;startArrow=oval;startFill=1;endArrow=block;startSize=8;curved=0;rounded=0;" parent="1" edge="1">
          <mxGeometry x="1" y="50" width="60" relative="1" as="geometry">
            <mxPoint x="220" y="410" as="sourcePoint" />
            <mxPoint x="220" y="440" as="targetPoint" />
            <mxPoint y="1" as="offset" />
          </mxGeometry>
        </mxCell>
        <mxCell id="cG8_wq8o6zvxuKKQntr9-4" value="&lt;span style=&quot;font-size: 12px; text-wrap-mode: wrap; background-color: rgb(236, 236, 236);&quot;&gt;&quot;fun_fun.txt&quot;, 3, &quot;08:00 AM - 04:00 PM&quot;&lt;/span&gt;" style="html=1;verticalAlign=bottom;startArrow=oval;startFill=1;endArrow=block;startSize=8;curved=0;rounded=0;" parent="1" edge="1">
          <mxGeometry x="1" y="41" width="60" relative="1" as="geometry">
            <mxPoint x="300" y="260" as="sourcePoint" />
            <mxPoint x="300" y="290" as="targetPoint" />
            <mxPoint x="-1" y="9" as="offset" />
          </mxGeometry>
        </mxCell>
        <mxCell id="cG8_wq8o6zvxuKKQntr9-5" value="&lt;span style=&quot;font-size: 12px; text-wrap-mode: wrap; background-color: rgb(236, 236, 236);&quot;&gt;&quot;happy_thai.txt&quot;, 5, &quot;11:00 AM - 03:00 PM / 05:00 PM - 10:00 PM&quot;&lt;/span&gt;" style="html=1;verticalAlign=bottom;startArrow=oval;startFill=1;endArrow=block;startSize=8;curved=0;rounded=0;" parent="1" edge="1">
          <mxGeometry x="1" y="61" width="60" relative="1" as="geometry">
            <mxPoint x="368.82" y="470" as="sourcePoint" />
            <mxPoint x="368.82" y="500" as="targetPoint" />
            <mxPoint y="-1" as="offset" />
          </mxGeometry>
        </mxCell>
        <mxCell id="cG8_wq8o6zvxuKKQntr9-6" value="&lt;span style=&quot;font-size: 12px; text-wrap-mode: wrap; background-color: rgb(236, 236, 236);&quot;&gt;&quot;mrs_yau.txt&quot;, 7, &quot;11:15 AM - 09:30 PM&quot;&lt;/span&gt;" style="html=1;verticalAlign=bottom;startArrow=oval;startFill=1;endArrow=block;startSize=8;curved=0;rounded=0;" parent="1" edge="1">
          <mxGeometry x="0.3333" y="55" width="60" relative="1" as="geometry">
            <mxPoint x="435" y="270" as="sourcePoint" />
            <mxPoint x="435" y="300" as="targetPoint" />
            <mxPoint as="offset" />
          </mxGeometry>
        </mxCell>
        <mxCell id="cG8_wq8o6zvxuKKQntr9-7" value="&lt;span style=&quot;font-size: 12px; text-wrap-mode: wrap; background-color: rgb(236, 236, 236);&quot;&gt;&quot;mye_mye.txt&quot;, 2, &quot;07:00 AM - 04:00 PM&quot;&lt;/span&gt;" style="html=1;verticalAlign=bottom;startArrow=oval;startFill=1;endArrow=block;startSize=8;curved=0;rounded=0;" parent="1" edge="1">
          <mxGeometry x="1" y="51" width="60" relative="1" as="geometry">
            <mxPoint x="540" y="390" as="sourcePoint" />
            <mxPoint x="540" y="420" as="targetPoint" />
            <mxPoint x="-1" y="10" as="offset" />
          </mxGeometry>
        </mxCell>
        <mxCell id="cG8_wq8o6zvxuKKQntr9-8" value="&lt;span style=&quot;font-size: 12px; text-wrap-mode: wrap; background-color: rgb(236, 236, 236);&quot;&gt;&quot;taiwan_dami.txt&quot;,&amp;nbsp;&lt;/span&gt;&lt;div&gt;&lt;span style=&quot;font-size: 12px; text-wrap-mode: wrap; background-color: rgb(236, 236, 236);&quot;&gt;3, &quot;11:30 AM - 09:30 PM&quot;&lt;/span&gt;&lt;/div&gt;" style="html=1;verticalAlign=bottom;startArrow=oval;startFill=1;endArrow=block;startSize=8;curved=0;rounded=0;" parent="1" edge="1">
          <mxGeometry x="0.3333" y="61" width="60" relative="1" as="geometry">
            <mxPoint x="588.82" y="280" as="sourcePoint" />
            <mxPoint x="588.82" y="310" as="targetPoint" />
            <mxPoint as="offset" />
          </mxGeometry>
        </mxCell>
        <UserObject label="&#xa;&lt;span style=&quot;color: rgb(0, 0, 0); font-family: Helvetica; font-size: 12px; font-style: normal; font-variant-ligatures: normal; font-variant-caps: normal; font-weight: 400; letter-spacing: normal; orphans: 2; text-align: center; text-indent: 0px; text-transform: none; widows: 2; word-spacing: 0px; -webkit-text-stroke-width: 0px; white-space: normal; background-color: rgb(236, 236, 236); text-decoration-thickness: initial; text-decoration-style: initial; text-decoration-color: initial; display: inline !important; float: none;&quot;&gt;&quot;wei_duo.txt&quot;, 9, &quot;10:00 AM - 09:30 PM&quot;&lt;/span&gt;&#xa;&#xa;" link="&#xa;&lt;span style=&quot;color: rgb(0, 0, 0); font-family: Helvetica; font-size: 12px; font-style: normal; font-variant-ligatures: normal; font-variant-caps: normal; font-weight: 400; letter-spacing: normal; orphans: 2; text-align: center; text-indent: 0px; text-transform: none; widows: 2; word-spacing: 0px; -webkit-text-stroke-width: 0px; white-space: normal; background-color: rgb(236, 236, 236); text-decoration-thickness: initial; text-decoration-style: initial; text-decoration-color: initial; display: inline !important; float: none;&quot;&gt;&quot;wei_duo.txt&quot;, 9, &quot;10:00 AM - 09:30 PM&quot;&lt;/span&gt;&#xa;&#xa;" id="cG8_wq8o6zvxuKKQntr9-9">
          <mxCell style="html=1;verticalAlign=bottom;startArrow=oval;startFill=1;endArrow=block;startSize=8;curved=0;rounded=0;" parent="1" edge="1">
            <mxGeometry x="0.6667" y="70" width="60" relative="1" as="geometry">
              <mxPoint x="680" y="405" as="sourcePoint" />
              <mxPoint x="680" y="435" as="targetPoint" />
              <mxPoint as="offset" />
            </mxGeometry>
          </mxCell>
        </UserObject>
        <mxCell id="cG8_wq8o6zvxuKKQntr9-12" value="&lt;span style=&quot;font-size: 12px; text-wrap-mode: wrap; background-color: rgb(236, 236, 236);&quot;&gt;&quot;bingxue.txt&quot;, 1, &quot;11:00 AM - 11:00 PM&quot;&lt;/span&gt;" style="html=1;verticalAlign=bottom;startArrow=oval;startFill=1;endArrow=block;startSize=8;curved=0;rounded=0;" parent="1" edge="1">
          <mxGeometry x="0.3333" y="50" width="60" relative="1" as="geometry">
            <mxPoint x="949.9999999999999" y="310" as="sourcePoint" />
            <mxPoint x="949.9999999999999" y="340" as="targetPoint" />
            <mxPoint as="offset" />
          </mxGeometry>
        </mxCell>
        <mxCell id="cG8_wq8o6zvxuKKQntr9-13" value="&lt;span style=&quot;font-size: 12px; text-wrap-mode: wrap; background-color: rgb(236, 236, 236);&quot;&gt;&quot;blackboard.txt&quot;, 1, &quot;12:00PM - 09:00 PM&quot;&lt;/span&gt;" style="html=1;verticalAlign=bottom;startArrow=oval;startFill=1;endArrow=block;startSize=8;curved=0;rounded=0;" parent="1" edge="1">
          <mxGeometry x="0.3333" y="50" width="60" relative="1" as="geometry">
            <mxPoint x="1040" y="480" as="sourcePoint" />
            <mxPoint x="1040" y="510" as="targetPoint" />
            <mxPoint as="offset" />
          </mxGeometry>
        </mxCell>
        <mxCell id="cG8_wq8o6zvxuKKQntr9-14" value="&lt;span style=&quot;font-size: 12px; text-wrap-mode: wrap; background-color: rgb(236, 236, 236);&quot;&gt;mixue.txt&quot;, 1, &quot;11:00 AM - 10:00 PM&quot;&lt;/span&gt;" style="html=1;verticalAlign=bottom;startArrow=oval;startFill=1;endArrow=block;startSize=8;curved=0;rounded=0;" parent="1" edge="1">
          <mxGeometry x="0.6667" y="40" width="60" relative="1" as="geometry">
            <mxPoint x="1120" y="305" as="sourcePoint" />
            <mxPoint x="1120" y="335" as="targetPoint" />
            <mxPoint as="offset" />
          </mxGeometry>
        </mxCell>
        <mxCell id="cG8_wq8o6zvxuKKQntr9-15" value="&lt;span style=&quot;font-size: 12px; text-wrap-mode: wrap; background-color: rgb(236, 236, 236);&quot;&gt;&quot;secret_penang.txt&quot;, 3, &quot;09:00 AM - 08:30 PM&quot;&lt;/span&gt;" style="html=1;verticalAlign=bottom;startArrow=oval;startFill=1;endArrow=block;startSize=8;curved=0;rounded=0;" parent="1" edge="1">
          <mxGeometry x="0.6667" y="70" width="60" relative="1" as="geometry">
            <mxPoint x="1210" y="475" as="sourcePoint" />
            <mxPoint x="1210" y="505" as="targetPoint" />
            <mxPoint as="offset" />
          </mxGeometry>
        </mxCell>
        <mxCell id="cG8_wq8o6zvxuKKQntr9-16" value="&lt;span style=&quot;font-size: 12px; text-wrap-mode: wrap; background-color: rgb(236, 236, 236);&quot;&gt;&quot;snowy.txt&quot;, 2, &quot;12:00PM - 09:00 PM&quot;&lt;/span&gt;" style="html=1;verticalAlign=bottom;startArrow=oval;startFill=1;endArrow=block;startSize=8;curved=0;rounded=0;" parent="1" edge="1">
          <mxGeometry x="0.6667" y="40" width="60" relative="1" as="geometry">
            <mxPoint x="1280" y="305" as="sourcePoint" />
            <mxPoint x="1280" y="335" as="targetPoint" />
            <mxPoint as="offset" />
          </mxGeometry>
        </mxCell>
        <mxCell id="cG8_wq8o6zvxuKKQntr9-17" value="&lt;span style=&quot;font-size: 12px; text-wrap-mode: wrap; background-color: rgb(236, 236, 236);&quot;&gt;&quot;zus_coffee.txt&quot;, 3, &quot;07:00 AM - 10:40 PM&quot;&lt;/span&gt;" style="html=1;verticalAlign=bottom;startArrow=oval;startFill=1;endArrow=block;startSize=8;curved=0;rounded=0;" parent="1" edge="1">
          <mxGeometry x="0.6667" y="60" width="60" relative="1" as="geometry">
            <mxPoint x="1430" y="305" as="sourcePoint" />
            <mxPoint x="1430" y="335" as="targetPoint" />
            <mxPoint as="offset" />
          </mxGeometry>
        </mxCell>
        <mxCell id="cG8_wq8o6zvxuKKQntr9-18" value="&lt;span style=&quot;font-size: 12px; text-wrap-mode: wrap; background-color: rgb(236, 236, 236);&quot;&gt;&quot;zaba_long.txt&quot;, 4, &quot;10:00 AM - 10:00 PM&quot;&lt;/span&gt;" style="html=1;verticalAlign=bottom;startArrow=oval;startFill=1;endArrow=block;startSize=8;curved=0;rounded=0;" parent="1" edge="1">
          <mxGeometry x="1" y="50" width="60" relative="1" as="geometry">
            <mxPoint x="1380" y="475" as="sourcePoint" />
            <mxPoint x="1380" y="505" as="targetPoint" />
            <mxPoint as="offset" />
          </mxGeometry>
        </mxCell>
        <mxCell id="cG8_wq8o6zvxuKKQntr9-19" value="modify_data()" style="whiteSpace=wrap;html=1;" parent="1" vertex="1">
          <mxGeometry x="2930" y="217.5" width="90" height="60" as="geometry" />
        </mxCell>
        <mxCell id="cG8_wq8o6zvxuKKQntr9-20" value="delete_data()" style="whiteSpace=wrap;html=1;" parent="1" vertex="1">
          <mxGeometry x="3040" y="217.5" width="90" height="60" as="geometry" />
        </mxCell>
        <mxCell id="cG8_wq8o6zvxuKKQntr9-21" value="calculate()" style="whiteSpace=wrap;html=1;" parent="1" vertex="1">
          <mxGeometry x="3150" y="217.5" width="80" height="60" as="geometry" />
        </mxCell>
        <mxCell id="cG8_wq8o6zvxuKKQntr9-22" value="" style="endArrow=none;html=1;rounded=0;entryX=0.5;entryY=1;entryDx=0;entryDy=0;exitX=0.5;exitY=0;exitDx=0;exitDy=0;" parent="1" source="5HcHVTi433muCl0VbMVD-81" target="5HcHVTi433muCl0VbMVD-80" edge="1">
          <mxGeometry width="50" height="50" relative="1" as="geometry">
            <mxPoint x="2690" y="187.5" as="sourcePoint" />
            <mxPoint x="2740" y="137.5" as="targetPoint" />
            <Array as="points">
              <mxPoint x="2540" y="67.5" />
              <mxPoint x="2790" y="67.5" />
            </Array>
          </mxGeometry>
        </mxCell>
        <mxCell id="cG8_wq8o6zvxuKKQntr9-23" value="" style="endArrow=none;html=1;rounded=0;entryX=0.5;entryY=1;entryDx=0;entryDy=0;exitX=0.5;exitY=0;exitDx=0;exitDy=0;" parent="1" source="5HcHVTi433muCl0VbMVD-82" target="5HcHVTi433muCl0VbMVD-80" edge="1">
          <mxGeometry width="50" height="50" relative="1" as="geometry">
            <mxPoint x="2690" y="187.5" as="sourcePoint" />
            <mxPoint x="2740" y="137.5" as="targetPoint" />
            <Array as="points">
              <mxPoint x="2660" y="67.5" />
              <mxPoint x="2790" y="67.5" />
            </Array>
          </mxGeometry>
        </mxCell>
        <mxCell id="cG8_wq8o6zvxuKKQntr9-25" value="" style="endArrow=none;html=1;rounded=0;entryX=0.5;entryY=1;entryDx=0;entryDy=0;exitX=0.5;exitY=0;exitDx=0;exitDy=0;" parent="1" source="5HcHVTi433muCl0VbMVD-84" target="5HcHVTi433muCl0VbMVD-80" edge="1">
          <mxGeometry width="50" height="50" relative="1" as="geometry">
            <mxPoint x="2920" y="187.5" as="sourcePoint" />
            <mxPoint x="2970" y="137.5" as="targetPoint" />
            <Array as="points">
              <mxPoint x="2755" y="67.5" />
              <mxPoint x="2790" y="67.5" />
            </Array>
          </mxGeometry>
        </mxCell>
        <mxCell id="cG8_wq8o6zvxuKKQntr9-26" value="" style="endArrow=none;html=1;rounded=0;entryX=0.5;entryY=1;entryDx=0;entryDy=0;exitX=0.5;exitY=0;exitDx=0;exitDy=0;" parent="1" source="5HcHVTi433muCl0VbMVD-85" target="5HcHVTi433muCl0VbMVD-80" edge="1">
          <mxGeometry width="50" height="50" relative="1" as="geometry">
            <mxPoint x="2920" y="187.5" as="sourcePoint" />
            <mxPoint x="2970" y="137.5" as="targetPoint" />
            <Array as="points">
              <mxPoint x="2860" y="67.5" />
              <mxPoint x="2790" y="67.5" />
            </Array>
          </mxGeometry>
        </mxCell>
        <mxCell id="cG8_wq8o6zvxuKKQntr9-27" value="" style="endArrow=none;html=1;rounded=0;entryX=0.5;entryY=1;entryDx=0;entryDy=0;exitX=0.5;exitY=0;exitDx=0;exitDy=0;" parent="1" source="cG8_wq8o6zvxuKKQntr9-19" target="5HcHVTi433muCl0VbMVD-80" edge="1">
          <mxGeometry width="50" height="50" relative="1" as="geometry">
            <mxPoint x="2920" y="187.5" as="sourcePoint" />
            <mxPoint x="2970" y="137.5" as="targetPoint" />
            <Array as="points">
              <mxPoint x="2975" y="67.5" />
              <mxPoint x="2790" y="67.5" />
            </Array>
          </mxGeometry>
        </mxCell>
        <mxCell id="cG8_wq8o6zvxuKKQntr9-28" value="" style="endArrow=none;html=1;rounded=0;entryX=0.5;entryY=1;entryDx=0;entryDy=0;exitX=0.5;exitY=0;exitDx=0;exitDy=0;" parent="1" source="cG8_wq8o6zvxuKKQntr9-20" target="5HcHVTi433muCl0VbMVD-80" edge="1">
          <mxGeometry width="50" height="50" relative="1" as="geometry">
            <mxPoint x="2920" y="187.5" as="sourcePoint" />
            <mxPoint x="2970" y="137.5" as="targetPoint" />
            <Array as="points">
              <mxPoint x="3085" y="67.5" />
              <mxPoint x="2790" y="67.5" />
            </Array>
          </mxGeometry>
        </mxCell>
        <mxCell id="cG8_wq8o6zvxuKKQntr9-29" value="" style="endArrow=none;html=1;rounded=0;entryX=0.5;entryY=1;entryDx=0;entryDy=0;exitX=0.5;exitY=0;exitDx=0;exitDy=0;" parent="1" source="cG8_wq8o6zvxuKKQntr9-21" target="5HcHVTi433muCl0VbMVD-80" edge="1">
          <mxGeometry width="50" height="50" relative="1" as="geometry">
            <mxPoint x="2920" y="187.5" as="sourcePoint" />
            <mxPoint x="2970" y="137.5" as="targetPoint" />
            <Array as="points">
              <mxPoint x="3190" y="67.5" />
              <mxPoint x="2790" y="67.5" />
            </Array>
          </mxGeometry>
        </mxCell>
        <mxCell id="cG8_wq8o6zvxuKKQntr9-30" value="(+)" style="text;html=1;align=center;verticalAlign=middle;resizable=0;points=[];autosize=1;strokeColor=none;fillColor=none;" parent="1" vertex="1">
          <mxGeometry x="2770" y="67.5" width="40" height="30" as="geometry" />
        </mxCell>
        <mxCell id="cG8_wq8o6zvxuKKQntr9-31" value="(+)" style="text;html=1;align=center;verticalAlign=middle;resizable=0;points=[];autosize=1;strokeColor=none;fillColor=none;" parent="1" vertex="1">
          <mxGeometry x="2900" y="67.5" width="40" height="30" as="geometry" />
        </mxCell>
        <mxCell id="cG8_wq8o6zvxuKKQntr9-32" value="(+)" style="text;html=1;align=center;verticalAlign=middle;resizable=0;points=[];autosize=1;strokeColor=none;fillColor=none;" parent="1" vertex="1">
          <mxGeometry x="3020" y="67.5" width="40" height="30" as="geometry" />
        </mxCell>
        <mxCell id="cG8_wq8o6zvxuKKQntr9-33" value="(+)" style="text;html=1;align=center;verticalAlign=middle;resizable=0;points=[];autosize=1;strokeColor=none;fillColor=none;" parent="1" vertex="1">
          <mxGeometry x="3120" y="67.5" width="40" height="30" as="geometry" />
        </mxCell>
        <mxCell id="cG8_wq8o6zvxuKKQntr9-34" value="text_file, code,&amp;nbsp;&lt;div&gt;food, f_price&lt;/div&gt;" style="html=1;verticalAlign=bottom;startArrow=oval;startFill=1;endArrow=block;startSize=8;curved=0;rounded=0;" parent="1" edge="1">
          <mxGeometry x="0.3333" y="60" width="60" relative="1" as="geometry">
            <mxPoint x="2850" y="187.5" as="sourcePoint" />
            <mxPoint x="2850" y="217.5" as="targetPoint" />
            <mxPoint as="offset" />
          </mxGeometry>
        </mxCell>
        <mxCell id="cG8_wq8o6zvxuKKQntr9-35" value="text_file, code,&lt;div&gt;&amp;nbsp;food, f_price&lt;/div&gt;" style="html=1;verticalAlign=bottom;startArrow=oval;startFill=1;endArrow=block;startSize=8;curved=0;rounded=0;" parent="1" edge="1">
          <mxGeometry x="0.3333" y="60" width="60" relative="1" as="geometry">
            <mxPoint x="2960" y="187.5" as="sourcePoint" />
            <mxPoint x="2960" y="217.5" as="targetPoint" />
            <mxPoint as="offset" />
          </mxGeometry>
        </mxCell>
        <mxCell id="cG8_wq8o6zvxuKKQntr9-36" value="text_file, code,&amp;nbsp;&lt;div&gt;quantity, f_price&lt;/div&gt;" style="html=1;verticalAlign=bottom;startArrow=oval;startFill=1;endArrow=block;startSize=8;curved=0;rounded=0;" parent="1" edge="1">
          <mxGeometry x="0.3333" y="60" width="60" relative="1" as="geometry">
            <mxPoint x="3180" y="187.5" as="sourcePoint" />
            <mxPoint x="3180" y="217.5" as="targetPoint" />
            <mxPoint as="offset" />
          </mxGeometry>
        </mxCell>
        <mxCell id="cG8_wq8o6zvxuKKQntr9-37" value="text_file, code,&lt;div&gt;&amp;nbsp;food, f_price&lt;/div&gt;" style="html=1;verticalAlign=bottom;startArrow=oval;startFill=1;endArrow=block;startSize=8;curved=0;rounded=0;" parent="1" edge="1">
          <mxGeometry x="0.3333" y="60" width="60" relative="1" as="geometry">
            <mxPoint x="3070" y="177.5" as="sourcePoint" />
            <mxPoint x="3070" y="207.5" as="targetPoint" />
            <mxPoint as="offset" />
          </mxGeometry>
        </mxCell>
        <mxCell id="cG8_wq8o6zvxuKKQntr9-38" value="10" style="ellipse;whiteSpace=wrap;html=1;" parent="1" vertex="1">
          <mxGeometry x="2849" y="317.5" width="20" height="20" as="geometry" />
        </mxCell>
        <mxCell id="cG8_wq8o6zvxuKKQntr9-40" value="11" style="ellipse;whiteSpace=wrap;html=1;" parent="1" vertex="1">
          <mxGeometry x="2965" y="317.5" width="20" height="20" as="geometry" />
        </mxCell>
        <mxCell id="cG8_wq8o6zvxuKKQntr9-41" value="12" style="ellipse;whiteSpace=wrap;html=1;" parent="1" vertex="1">
          <mxGeometry x="3075" y="317.5" width="20" height="20" as="geometry" />
        </mxCell>
        <mxCell id="cG8_wq8o6zvxuKKQntr9-42" value="13" style="ellipse;whiteSpace=wrap;html=1;" parent="1" vertex="1">
          <mxGeometry x="3180" y="317.5" width="20" height="20" as="geometry" />
        </mxCell>
        <mxCell id="cG8_wq8o6zvxuKKQntr9-44" value="" style="endArrow=none;html=1;rounded=0;entryX=0.5;entryY=1;entryDx=0;entryDy=0;exitX=0.5;exitY=0;exitDx=0;exitDy=0;" parent="1" source="cG8_wq8o6zvxuKKQntr9-38" target="5HcHVTi433muCl0VbMVD-85" edge="1">
          <mxGeometry width="50" height="50" relative="1" as="geometry">
            <mxPoint x="2990" y="187.5" as="sourcePoint" />
            <mxPoint x="3040" y="137.5" as="targetPoint" />
          </mxGeometry>
        </mxCell>
        <mxCell id="cG8_wq8o6zvxuKKQntr9-45" value="" style="endArrow=none;html=1;rounded=0;entryX=0.5;entryY=1;entryDx=0;entryDy=0;exitX=0.5;exitY=0;exitDx=0;exitDy=0;" parent="1" source="cG8_wq8o6zvxuKKQntr9-40" target="cG8_wq8o6zvxuKKQntr9-19" edge="1">
          <mxGeometry width="50" height="50" relative="1" as="geometry">
            <mxPoint x="2990" y="187.5" as="sourcePoint" />
            <mxPoint x="3040" y="137.5" as="targetPoint" />
          </mxGeometry>
        </mxCell>
        <mxCell id="cG8_wq8o6zvxuKKQntr9-46" value="" style="endArrow=none;html=1;rounded=0;entryX=0.5;entryY=1;entryDx=0;entryDy=0;exitX=0.5;exitY=0;exitDx=0;exitDy=0;" parent="1" source="cG8_wq8o6zvxuKKQntr9-41" target="cG8_wq8o6zvxuKKQntr9-20" edge="1">
          <mxGeometry width="50" height="50" relative="1" as="geometry">
            <mxPoint x="2990" y="187.5" as="sourcePoint" />
            <mxPoint x="3040" y="137.5" as="targetPoint" />
          </mxGeometry>
        </mxCell>
        <mxCell id="cG8_wq8o6zvxuKKQntr9-47" value="" style="endArrow=none;html=1;rounded=0;entryX=0.5;entryY=1;entryDx=0;entryDy=0;exitX=0.5;exitY=0;exitDx=0;exitDy=0;" parent="1" source="cG8_wq8o6zvxuKKQntr9-42" target="cG8_wq8o6zvxuKKQntr9-21" edge="1">
          <mxGeometry width="50" height="50" relative="1" as="geometry">
            <mxPoint x="2990" y="187.5" as="sourcePoint" />
            <mxPoint x="3040" y="137.5" as="targetPoint" />
          </mxGeometry>
        </mxCell>
        <mxCell id="cG8_wq8o6zvxuKKQntr9-51" value="10" style="ellipse;whiteSpace=wrap;html=1;" parent="1" vertex="1">
          <mxGeometry x="3670" y="37.5" width="20" height="20" as="geometry" />
        </mxCell>
        <mxCell id="cG8_wq8o6zvxuKKQntr9-52" value="clear_screen()" style="whiteSpace=wrap;html=1;" parent="1" vertex="1">
          <mxGeometry x="3320" y="167.5" width="120" height="60" as="geometry" />
        </mxCell>
        <mxCell id="cG8_wq8o6zvxuKKQntr9-53" value="display_data()" style="whiteSpace=wrap;html=1;" parent="1" vertex="1">
          <mxGeometry x="3480" y="167.5" width="120" height="60" as="geometry" />
        </mxCell>
        <mxCell id="cG8_wq8o6zvxuKKQntr9-54" value="text_file" style="html=1;verticalAlign=bottom;startArrow=oval;startFill=1;endArrow=block;startSize=8;curved=0;rounded=0;" parent="1" edge="1">
          <mxGeometry x="0.3333" y="30" width="60" relative="1" as="geometry">
            <mxPoint x="3550" y="137.5" as="sourcePoint" />
            <mxPoint x="3550" y="167.5" as="targetPoint" />
            <mxPoint as="offset" />
          </mxGeometry>
        </mxCell>
        <mxCell id="cG8_wq8o6zvxuKKQntr9-55" value="" style="endArrow=none;html=1;rounded=0;entryX=0.5;entryY=1;entryDx=0;entryDy=0;exitX=0.5;exitY=0;exitDx=0;exitDy=0;" parent="1" source="cG8_wq8o6zvxuKKQntr9-52" target="cG8_wq8o6zvxuKKQntr9-51" edge="1">
          <mxGeometry width="50" height="50" relative="1" as="geometry">
            <mxPoint x="3640" y="407.5" as="sourcePoint" />
            <mxPoint x="3690" y="357.5" as="targetPoint" />
            <Array as="points">
              <mxPoint x="3380" y="107.5" />
              <mxPoint x="3680" y="107.5" />
            </Array>
          </mxGeometry>
        </mxCell>
        <mxCell id="cG8_wq8o6zvxuKKQntr9-56" value="" style="endArrow=none;html=1;rounded=0;entryX=0.5;entryY=1;entryDx=0;entryDy=0;exitX=0.5;exitY=0;exitDx=0;exitDy=0;" parent="1" source="cG8_wq8o6zvxuKKQntr9-53" target="cG8_wq8o6zvxuKKQntr9-51" edge="1">
          <mxGeometry width="50" height="50" relative="1" as="geometry">
            <mxPoint x="3640" y="407.5" as="sourcePoint" />
            <mxPoint x="3690" y="357.5" as="targetPoint" />
            <Array as="points">
              <mxPoint x="3540" y="107.5" />
              <mxPoint x="3680" y="107.5" />
            </Array>
          </mxGeometry>
        </mxCell>
        <mxCell id="cG8_wq8o6zvxuKKQntr9-57" value="" style="rhombus;whiteSpace=wrap;html=1;" parent="1" vertex="1">
          <mxGeometry x="3787.5" y="117.5" width="20" height="20" as="geometry" />
        </mxCell>
        <mxCell id="cG8_wq8o6zvxuKKQntr9-58" value="" style="verticalLabelPosition=bottom;html=1;verticalAlign=top;strokeWidth=2;shape=mxgraph.lean_mapping.physical_pull;pointerEvents=1;" parent="1" vertex="1">
          <mxGeometry x="3780" y="122.5" width="35" height="15" as="geometry" />
        </mxCell>
        <mxCell id="cG8_wq8o6zvxuKKQntr9-60" value="" style="endArrow=none;html=1;rounded=0;entryX=0.5;entryY=1;entryDx=0;entryDy=0;" parent="1" target="cG8_wq8o6zvxuKKQntr9-51" edge="1">
          <mxGeometry width="50" height="50" relative="1" as="geometry">
            <mxPoint x="3680" y="107.5" as="sourcePoint" />
            <mxPoint x="3852.5" y="127.5" as="targetPoint" />
          </mxGeometry>
        </mxCell>
        <mxCell id="cG8_wq8o6zvxuKKQntr9-61" value="quit()" style="whiteSpace=wrap;html=1;" parent="1" vertex="1">
          <mxGeometry x="3625" y="237.5" width="90" height="20" as="geometry" />
        </mxCell>
        <mxCell id="cG8_wq8o6zvxuKKQntr9-62" value="check_code()" style="whiteSpace=wrap;html=1;" parent="1" vertex="1">
          <mxGeometry x="3752.5" y="237.5" width="110" height="20" as="geometry" />
        </mxCell>
        <mxCell id="cG8_wq8o6zvxuKKQntr9-63" value="" style="endArrow=none;html=1;rounded=0;entryX=0.5;entryY=1;entryDx=0;entryDy=0;exitX=0.5;exitY=0;exitDx=0;exitDy=0;" parent="1" source="cG8_wq8o6zvxuKKQntr9-61" target="cG8_wq8o6zvxuKKQntr9-57" edge="1">
          <mxGeometry width="50" height="50" relative="1" as="geometry">
            <mxPoint x="3700" y="197.5" as="sourcePoint" />
            <mxPoint x="3750" y="147.5" as="targetPoint" />
            <Array as="points">
              <mxPoint x="3670" y="187.5" />
              <mxPoint x="3733" y="187.5" />
              <mxPoint x="3733" y="157.5" />
              <mxPoint x="3798" y="157.5" />
            </Array>
          </mxGeometry>
        </mxCell>
        <mxCell id="cG8_wq8o6zvxuKKQntr9-64" value="" style="endArrow=none;html=1;rounded=0;entryX=0.5;entryY=1;entryDx=0;entryDy=0;exitX=0.5;exitY=0;exitDx=0;exitDy=0;" parent="1" source="cG8_wq8o6zvxuKKQntr9-62" target="cG8_wq8o6zvxuKKQntr9-58" edge="1">
          <mxGeometry width="50" height="50" relative="1" as="geometry">
            <mxPoint x="3700" y="197.5" as="sourcePoint" />
            <mxPoint x="3750" y="147.5" as="targetPoint" />
            <Array as="points">
              <mxPoint x="3808" y="187.5" />
              <mxPoint x="3733" y="187.5" />
              <mxPoint x="3733" y="157.5" />
              <mxPoint x="3798" y="157.5" />
            </Array>
          </mxGeometry>
        </mxCell>
        <mxCell id="cG8_wq8o6zvxuKKQntr9-65" value="(+)&lt;span style=&quot;color: rgba(0, 0, 0, 0); font-family: monospace; font-size: 0px; text-align: start;&quot;&gt;%3CmxGraphModel%3E%3Croot%3E%3CmxCell%20id%3D%220%22%2F%3E%3CmxCell%20id%3D%221%22%20parent%3D%220%22%2F%3E%3CmxCell%20id%3D%222%22%20value%3D%22%22%20style%3D%22verticalLabelPosition%3Dbottom%3Bhtml%3D1%3BverticalAlign%3Dtop%3BstrokeWidth%3D2%3Bshape%3Dmxgraph.lean_mapping.physical_pull%3BpointerEvents%3D1%3B%22%20vertex%3D%221%22%20parent%3D%221%22%3E%3CmxGeometry%20x%3D%221155%22%20y%3D%2250%22%20width%3D%2220%22%20height%3D%2210%22%20as%3D%22geometry%22%2F%3E%3C%2FmxCell%3E%3C%2Froot%3E%3C%2FmxGraphModel%3E&lt;/span&gt;" style="text;html=1;align=center;verticalAlign=middle;resizable=0;points=[];autosize=1;strokeColor=none;fillColor=none;" parent="1" vertex="1">
          <mxGeometry x="3712.5" y="182.5" width="40" height="30" as="geometry" />
        </mxCell>
        <mxCell id="cG8_wq8o6zvxuKKQntr9-67" value="text_file,&lt;div&gt;code&lt;/div&gt;" style="html=1;verticalAlign=bottom;startArrow=oval;startFill=1;endArrow=block;startSize=8;curved=0;rounded=0;" parent="1" edge="1">
          <mxGeometry x="0.3333" y="30" width="60" relative="1" as="geometry">
            <mxPoint x="3830" y="197.5" as="sourcePoint" />
            <mxPoint x="3830" y="227.5" as="targetPoint" />
            <mxPoint as="offset" />
          </mxGeometry>
        </mxCell>
        <mxCell id="cG8_wq8o6zvxuKKQntr9-68" value="quit()" style="whiteSpace=wrap;html=1;" parent="1" vertex="1">
          <mxGeometry x="3870" y="237.5" width="40" height="25" as="geometry" />
        </mxCell>
        <mxCell id="cG8_wq8o6zvxuKKQntr9-69" value="" style="endArrow=none;html=1;rounded=0;entryX=0.5;entryY=1;entryDx=0;entryDy=0;exitX=0.5;exitY=0;exitDx=0;exitDy=0;" parent="1" source="cG8_wq8o6zvxuKKQntr9-68" target="cG8_wq8o6zvxuKKQntr9-58" edge="1">
          <mxGeometry width="50" height="50" relative="1" as="geometry">
            <mxPoint x="3890" y="197.5" as="sourcePoint" />
            <mxPoint x="3940" y="147.5" as="targetPoint" />
            <Array as="points">
              <mxPoint x="3890" y="197.5" />
              <mxPoint x="3930" y="197.5" />
              <mxPoint x="3930" y="157.5" />
              <mxPoint x="3798" y="157.5" />
            </Array>
          </mxGeometry>
        </mxCell>
        <mxCell id="cG8_wq8o6zvxuKKQntr9-70" value="food_description()" style="whiteSpace=wrap;html=1;" parent="1" vertex="1">
          <mxGeometry x="3920" y="237.5" width="100" height="30" as="geometry" />
        </mxCell>
        <mxCell id="cG8_wq8o6zvxuKKQntr9-72" value="" style="endArrow=none;html=1;rounded=0;entryX=0.5;entryY=1;entryDx=0;entryDy=0;exitX=0.5;exitY=0;exitDx=0;exitDy=0;" parent="1" source="cG8_wq8o6zvxuKKQntr9-70" target="cG8_wq8o6zvxuKKQntr9-58" edge="1">
          <mxGeometry width="50" height="50" relative="1" as="geometry">
            <mxPoint x="3870" y="127.5" as="sourcePoint" />
            <mxPoint x="3920" y="77.5" as="targetPoint" />
            <Array as="points">
              <mxPoint x="3970" y="197.5" />
              <mxPoint x="3930" y="197.5" />
              <mxPoint x="3930" y="157.5" />
              <mxPoint x="3798" y="157.5" />
            </Array>
          </mxGeometry>
        </mxCell>
        <mxCell id="cG8_wq8o6zvxuKKQntr9-73" value="food_price()" style="whiteSpace=wrap;html=1;" parent="1" vertex="1">
          <mxGeometry x="4030" y="237.5" width="80" height="30" as="geometry" />
        </mxCell>
        <mxCell id="cG8_wq8o6zvxuKKQntr9-74" value="" style="endArrow=none;html=1;rounded=0;exitX=0.5;exitY=0;exitDx=0;exitDy=0;entryX=0.5;entryY=1;entryDx=0;entryDy=0;" parent="1" source="cG8_wq8o6zvxuKKQntr9-73" target="cG8_wq8o6zvxuKKQntr9-58" edge="1">
          <mxGeometry width="50" height="50" relative="1" as="geometry">
            <mxPoint x="3950" y="127.5" as="sourcePoint" />
            <mxPoint x="4000" y="77.5" as="targetPoint" />
            <Array as="points">
              <mxPoint x="4070" y="157.5" />
              <mxPoint x="3950" y="157.5" />
              <mxPoint x="3798" y="157.5" />
            </Array>
          </mxGeometry>
        </mxCell>
        <mxCell id="cG8_wq8o6zvxuKKQntr9-76" value="" style="endArrow=none;html=1;rounded=0;entryX=0.5;entryY=1;entryDx=0;entryDy=0;exitX=0.5;exitY=0;exitDx=0;exitDy=0;" parent="1" source="cG8_wq8o6zvxuKKQntr9-57" target="cG8_wq8o6zvxuKKQntr9-51" edge="1">
          <mxGeometry width="50" height="50" relative="1" as="geometry">
            <mxPoint x="3740" y="107.5" as="sourcePoint" />
            <mxPoint x="3790" y="57.5" as="targetPoint" />
            <Array as="points">
              <mxPoint x="3798" y="107.5" />
              <mxPoint x="3680" y="107.5" />
            </Array>
          </mxGeometry>
        </mxCell>
        <mxCell id="cG8_wq8o6zvxuKKQntr9-78" value="11" style="ellipse;whiteSpace=wrap;html=1;" parent="1" vertex="1">
          <mxGeometry x="3570" y="332.5" width="20" height="20" as="geometry" />
        </mxCell>
        <mxCell id="cG8_wq8o6zvxuKKQntr9-79" value="clear_screen()" style="whiteSpace=wrap;html=1;" parent="1" vertex="1">
          <mxGeometry x="3300" y="467.5" width="90" height="20" as="geometry" />
        </mxCell>
        <mxCell id="cG8_wq8o6zvxuKKQntr9-80" value="display_data()" style="whiteSpace=wrap;html=1;" parent="1" vertex="1">
          <mxGeometry x="3400" y="467.5" width="80" height="30" as="geometry" />
        </mxCell>
        <mxCell id="cG8_wq8o6zvxuKKQntr9-81" value="text_file" style="html=1;verticalAlign=bottom;startArrow=oval;startFill=1;endArrow=block;startSize=8;curved=0;rounded=0;" parent="1" edge="1">
          <mxGeometry x="0.3333" y="30" width="60" relative="1" as="geometry">
            <mxPoint x="3460" y="427.5" as="sourcePoint" />
            <mxPoint x="3460" y="457.5" as="targetPoint" />
            <mxPoint as="offset" />
          </mxGeometry>
        </mxCell>
        <mxCell id="cG8_wq8o6zvxuKKQntr9-82" value="" style="endArrow=none;html=1;rounded=0;entryX=0.5;entryY=1;entryDx=0;entryDy=0;exitX=0.5;exitY=0;exitDx=0;exitDy=0;" parent="1" source="cG8_wq8o6zvxuKKQntr9-79" target="cG8_wq8o6zvxuKKQntr9-78" edge="1">
          <mxGeometry width="50" height="50" relative="1" as="geometry">
            <mxPoint x="3640" y="707.5" as="sourcePoint" />
            <mxPoint x="3690" y="657.5" as="targetPoint" />
            <Array as="points">
              <mxPoint x="3345" y="407.5" />
              <mxPoint x="3580" y="407.5" />
            </Array>
          </mxGeometry>
        </mxCell>
        <mxCell id="cG8_wq8o6zvxuKKQntr9-83" value="" style="endArrow=none;html=1;rounded=0;entryX=0.5;entryY=1;entryDx=0;entryDy=0;exitX=0.5;exitY=0;exitDx=0;exitDy=0;" parent="1" source="cG8_wq8o6zvxuKKQntr9-80" target="cG8_wq8o6zvxuKKQntr9-78" edge="1">
          <mxGeometry width="50" height="50" relative="1" as="geometry">
            <mxPoint x="3640" y="707.5" as="sourcePoint" />
            <mxPoint x="3690" y="657.5" as="targetPoint" />
            <Array as="points">
              <mxPoint x="3440" y="407.5" />
              <mxPoint x="3580" y="407.5" />
            </Array>
          </mxGeometry>
        </mxCell>
        <mxCell id="cG8_wq8o6zvxuKKQntr9-84" value="" style="rhombus;whiteSpace=wrap;html=1;" parent="1" vertex="1">
          <mxGeometry x="3670" y="437.5" width="20" height="20" as="geometry" />
        </mxCell>
        <mxCell id="cG8_wq8o6zvxuKKQntr9-85" value="" style="verticalLabelPosition=bottom;html=1;verticalAlign=top;strokeWidth=2;shape=mxgraph.lean_mapping.physical_pull;pointerEvents=1;" parent="1" vertex="1">
          <mxGeometry x="3662.5" y="442.5" width="35" height="15" as="geometry" />
        </mxCell>
        <mxCell id="cG8_wq8o6zvxuKKQntr9-86" value="" style="endArrow=none;html=1;rounded=0;entryX=0.5;entryY=1;entryDx=0;entryDy=0;" parent="1" target="cG8_wq8o6zvxuKKQntr9-78" edge="1">
          <mxGeometry width="50" height="50" relative="1" as="geometry">
            <mxPoint x="3580" y="407.5" as="sourcePoint" />
            <mxPoint x="3852.5" y="427.5" as="targetPoint" />
          </mxGeometry>
        </mxCell>
        <mxCell id="cG8_wq8o6zvxuKKQntr9-87" value="quit()" style="whiteSpace=wrap;html=1;" parent="1" vertex="1">
          <mxGeometry x="3530" y="527.5" width="45" height="20" as="geometry" />
        </mxCell>
        <mxCell id="cG8_wq8o6zvxuKKQntr9-88" value="check_code()" style="whiteSpace=wrap;html=1;" parent="1" vertex="1">
          <mxGeometry x="3590" y="532.5" width="80" height="20" as="geometry" />
        </mxCell>
        <mxCell id="cG8_wq8o6zvxuKKQntr9-89" value="" style="endArrow=none;html=1;rounded=0;entryX=0.5;entryY=1;entryDx=0;entryDy=0;exitX=0.5;exitY=0;exitDx=0;exitDy=0;" parent="1" source="cG8_wq8o6zvxuKKQntr9-87" target="cG8_wq8o6zvxuKKQntr9-84" edge="1">
          <mxGeometry width="50" height="50" relative="1" as="geometry">
            <mxPoint x="3582.5" y="517.5" as="sourcePoint" />
            <mxPoint x="3632.5" y="467.5" as="targetPoint" />
            <Array as="points">
              <mxPoint x="3552.5" y="507.5" />
              <mxPoint x="3615.5" y="507.5" />
              <mxPoint x="3615.5" y="477.5" />
              <mxPoint x="3680.5" y="477.5" />
            </Array>
          </mxGeometry>
        </mxCell>
        <mxCell id="cG8_wq8o6zvxuKKQntr9-90" value="" style="endArrow=none;html=1;rounded=0;entryX=0.5;entryY=1;entryDx=0;entryDy=0;exitX=0.5;exitY=0;exitDx=0;exitDy=0;" parent="1" source="cG8_wq8o6zvxuKKQntr9-88" target="cG8_wq8o6zvxuKKQntr9-85" edge="1">
          <mxGeometry width="50" height="50" relative="1" as="geometry">
            <mxPoint x="3582.5" y="517.5" as="sourcePoint" />
            <mxPoint x="3632.5" y="467.5" as="targetPoint" />
            <Array as="points">
              <mxPoint x="3632.5" y="507.5" />
              <mxPoint x="3615.5" y="507.5" />
              <mxPoint x="3615.5" y="477.5" />
              <mxPoint x="3680.5" y="477.5" />
            </Array>
          </mxGeometry>
        </mxCell>
        <mxCell id="cG8_wq8o6zvxuKKQntr9-91" value="(+)&lt;span style=&quot;color: rgba(0, 0, 0, 0); font-family: monospace; font-size: 0px; text-align: start;&quot;&gt;%3CmxGraphModel%3E%3Croot%3E%3CmxCell%20id%3D%220%22%2F%3E%3CmxCell%20id%3D%221%22%20parent%3D%220%22%2F%3E%3CmxCell%20id%3D%222%22%20value%3D%22%22%20style%3D%22verticalLabelPosition%3Dbottom%3Bhtml%3D1%3BverticalAlign%3Dtop%3BstrokeWidth%3D2%3Bshape%3Dmxgraph.lean_mapping.physical_pull%3BpointerEvents%3D1%3B%22%20vertex%3D%221%22%20parent%3D%221%22%3E%3CmxGeometry%20x%3D%221155%22%20y%3D%2250%22%20width%3D%2220%22%20height%3D%2210%22%20as%3D%22geometry%22%2F%3E%3C%2FmxCell%3E%3C%2Froot%3E%3C%2FmxGraphModel%3E&lt;/span&gt;" style="text;html=1;align=center;verticalAlign=middle;resizable=0;points=[];autosize=1;strokeColor=none;fillColor=none;" parent="1" vertex="1">
          <mxGeometry x="3595" y="502.5" width="40" height="30" as="geometry" />
        </mxCell>
        <mxCell id="cG8_wq8o6zvxuKKQntr9-92" value="text_file,&lt;div&gt;code&lt;/div&gt;" style="html=1;verticalAlign=bottom;startArrow=oval;startFill=1;endArrow=block;startSize=8;curved=0;rounded=0;" parent="1" edge="1">
          <mxGeometry x="0.3333" y="30" width="60" relative="1" as="geometry">
            <mxPoint x="3642.5" y="512.5" as="sourcePoint" />
            <mxPoint x="3642.5" y="527.5" as="targetPoint" />
            <mxPoint as="offset" />
          </mxGeometry>
        </mxCell>
        <mxCell id="cG8_wq8o6zvxuKKQntr9-93" value="quit()" style="whiteSpace=wrap;html=1;" parent="1" vertex="1">
          <mxGeometry x="3682.5" y="562.5" width="40" height="25" as="geometry" />
        </mxCell>
        <mxCell id="cG8_wq8o6zvxuKKQntr9-94" value="" style="endArrow=none;html=1;rounded=0;entryX=0.5;entryY=1;entryDx=0;entryDy=0;exitX=0.5;exitY=0;exitDx=0;exitDy=0;" parent="1" source="cG8_wq8o6zvxuKKQntr9-93" target="cG8_wq8o6zvxuKKQntr9-85" edge="1">
          <mxGeometry width="50" height="50" relative="1" as="geometry">
            <mxPoint x="3772.5" y="517.5" as="sourcePoint" />
            <mxPoint x="3822.5" y="467.5" as="targetPoint" />
            <Array as="points">
              <mxPoint x="3702.5" y="517.5" />
              <mxPoint x="3732.5" y="517.5" />
              <mxPoint x="3732.5" y="477.5" />
              <mxPoint x="3680.5" y="477.5" />
            </Array>
          </mxGeometry>
        </mxCell>
        <mxCell id="cG8_wq8o6zvxuKKQntr9-95" value="check_code()" style="whiteSpace=wrap;html=1;" parent="1" vertex="1">
          <mxGeometry x="3732.5" y="562.5" width="80" height="30" as="geometry" />
        </mxCell>
        <mxCell id="cG8_wq8o6zvxuKKQntr9-96" value="" style="endArrow=none;html=1;rounded=0;entryX=0.5;entryY=1;entryDx=0;entryDy=0;exitX=0.5;exitY=0;exitDx=0;exitDy=0;" parent="1" source="cG8_wq8o6zvxuKKQntr9-95" target="cG8_wq8o6zvxuKKQntr9-85" edge="1">
          <mxGeometry width="50" height="50" relative="1" as="geometry">
            <mxPoint x="3752.5" y="447.5" as="sourcePoint" />
            <mxPoint x="3802.5" y="397.5" as="targetPoint" />
            <Array as="points">
              <mxPoint x="3772.5" y="517.5" />
              <mxPoint x="3732.5" y="517.5" />
              <mxPoint x="3732.5" y="477.5" />
              <mxPoint x="3680.5" y="477.5" />
            </Array>
          </mxGeometry>
        </mxCell>
        <mxCell id="cG8_wq8o6zvxuKKQntr9-97" value="food_description()" style="whiteSpace=wrap;html=1;" parent="1" vertex="1">
          <mxGeometry x="3890" y="565" width="80" height="30" as="geometry" />
        </mxCell>
        <mxCell id="cG8_wq8o6zvxuKKQntr9-98" value="" style="endArrow=none;html=1;rounded=0;exitX=0.5;exitY=0;exitDx=0;exitDy=0;entryX=0.5;entryY=1;entryDx=0;entryDy=0;" parent="1" source="cG8_wq8o6zvxuKKQntr9-97" target="cG8_wq8o6zvxuKKQntr9-85" edge="1">
          <mxGeometry width="50" height="50" relative="1" as="geometry">
            <mxPoint x="3832.5" y="447.5" as="sourcePoint" />
            <mxPoint x="3882.5" y="397.5" as="targetPoint" />
            <Array as="points">
              <mxPoint x="3930" y="527.5" />
              <mxPoint x="3882.5" y="527.5" />
              <mxPoint x="3882.5" y="477.5" />
              <mxPoint x="3832.5" y="477.5" />
              <mxPoint x="3680.5" y="477.5" />
            </Array>
          </mxGeometry>
        </mxCell>
        <mxCell id="cG8_wq8o6zvxuKKQntr9-99" value="" style="endArrow=none;html=1;rounded=0;entryX=0.5;entryY=1;entryDx=0;entryDy=0;exitX=0.5;exitY=0;exitDx=0;exitDy=0;" parent="1" source="cG8_wq8o6zvxuKKQntr9-84" target="cG8_wq8o6zvxuKKQntr9-78" edge="1">
          <mxGeometry width="50" height="50" relative="1" as="geometry">
            <mxPoint x="3740" y="407.5" as="sourcePoint" />
            <mxPoint x="3790" y="357.5" as="targetPoint" />
            <Array as="points">
              <mxPoint x="3680" y="407.5" />
              <mxPoint x="3580" y="407.5" />
            </Array>
          </mxGeometry>
        </mxCell>
        <mxCell id="cG8_wq8o6zvxuKKQntr9-100" value="text_file,&lt;div&gt;code&lt;/div&gt;" style="html=1;verticalAlign=bottom;startArrow=oval;startFill=1;endArrow=block;startSize=8;curved=0;rounded=0;" parent="1" edge="1">
          <mxGeometry x="0.3333" y="30" width="60" relative="1" as="geometry">
            <mxPoint x="3792.5" y="527.5" as="sourcePoint" />
            <mxPoint x="3792.5" y="557.5" as="targetPoint" />
            <mxPoint as="offset" />
          </mxGeometry>
        </mxCell>
        <mxCell id="cG8_wq8o6zvxuKKQntr9-101" value="new_food_code()" style="whiteSpace=wrap;html=1;" parent="1" vertex="1">
          <mxGeometry x="3722.5" y="607.5" width="100" height="30" as="geometry" />
        </mxCell>
        <mxCell id="cG8_wq8o6zvxuKKQntr9-102" value="" style="endArrow=none;html=1;rounded=0;exitX=0.5;exitY=0;exitDx=0;exitDy=0;entryX=0.5;entryY=1;entryDx=0;entryDy=0;" parent="1" source="cG8_wq8o6zvxuKKQntr9-101" target="cG8_wq8o6zvxuKKQntr9-95" edge="1">
          <mxGeometry width="50" height="50" relative="1" as="geometry">
            <mxPoint x="3782.5" y="532.5" as="sourcePoint" />
            <mxPoint x="3832.5" y="482.5" as="targetPoint" />
          </mxGeometry>
        </mxCell>
        <mxCell id="cG8_wq8o6zvxuKKQntr9-103" value="quit()" style="whiteSpace=wrap;html=1;" parent="1" vertex="1">
          <mxGeometry x="3832.5" y="567.5" width="50" height="20" as="geometry" />
        </mxCell>
        <mxCell id="cG8_wq8o6zvxuKKQntr9-104" value="" style="endArrow=none;html=1;rounded=0;entryX=0.5;entryY=1;entryDx=0;entryDy=0;exitX=0.5;exitY=0;exitDx=0;exitDy=0;" parent="1" source="cG8_wq8o6zvxuKKQntr9-103" target="cG8_wq8o6zvxuKKQntr9-85" edge="1">
          <mxGeometry width="50" height="50" relative="1" as="geometry">
            <mxPoint x="3962.5" y="527.5" as="sourcePoint" />
            <mxPoint x="4012.5" y="477.5" as="targetPoint" />
            <Array as="points">
              <mxPoint x="3857.5" y="527.5" />
              <mxPoint x="3882.5" y="527.5" />
              <mxPoint x="3882.5" y="477.5" />
              <mxPoint x="3679.5" y="477.5" />
            </Array>
          </mxGeometry>
        </mxCell>
        <mxCell id="cG8_wq8o6zvxuKKQntr9-105" value="quit()" style="whiteSpace=wrap;html=1;" parent="1" vertex="1">
          <mxGeometry x="3970" y="592.5" width="40" height="20" as="geometry" />
        </mxCell>
        <mxCell id="cG8_wq8o6zvxuKKQntr9-106" value="food_price()" style="whiteSpace=wrap;html=1;" parent="1" vertex="1">
          <mxGeometry x="4040" y="595" width="70" height="20" as="geometry" />
        </mxCell>
        <mxCell id="cG8_wq8o6zvxuKKQntr9-110" value="" style="endArrow=none;html=1;rounded=0;entryX=0.5;entryY=1;entryDx=0;entryDy=0;exitX=0.5;exitY=0;exitDx=0;exitDy=0;" parent="1" source="cG8_wq8o6zvxuKKQntr9-105" target="cG8_wq8o6zvxuKKQntr9-85" edge="1">
          <mxGeometry width="50" height="50" relative="1" as="geometry">
            <mxPoint x="3940" y="587.5" as="sourcePoint" />
            <mxPoint x="3990" y="537.5" as="targetPoint" />
            <Array as="points">
              <mxPoint x="3990" y="527.5" />
              <mxPoint x="4040" y="527.5" />
              <mxPoint x="4040" y="477.5" />
              <mxPoint x="3680" y="477.5" />
            </Array>
          </mxGeometry>
        </mxCell>
        <mxCell id="cG8_wq8o6zvxuKKQntr9-111" value="" style="endArrow=none;html=1;rounded=0;entryX=0.5;entryY=1;entryDx=0;entryDy=0;exitX=0.5;exitY=0;exitDx=0;exitDy=0;" parent="1" source="cG8_wq8o6zvxuKKQntr9-106" target="cG8_wq8o6zvxuKKQntr9-85" edge="1">
          <mxGeometry width="50" height="50" relative="1" as="geometry">
            <mxPoint x="3940" y="587.5" as="sourcePoint" />
            <mxPoint x="3990" y="537.5" as="targetPoint" />
            <Array as="points">
              <mxPoint x="4080" y="527.5" />
              <mxPoint x="4040" y="527.5" />
              <mxPoint x="4040" y="477.5" />
              <mxPoint x="3680" y="477.5" />
            </Array>
          </mxGeometry>
        </mxCell>
        <mxCell id="cG8_wq8o6zvxuKKQntr9-112" value="(+)" style="text;html=1;align=center;verticalAlign=middle;resizable=0;points=[];autosize=1;strokeColor=none;fillColor=none;" parent="1" vertex="1">
          <mxGeometry x="4020" y="525.5" width="40" height="30" as="geometry" />
        </mxCell>
        <mxCell id="cG8_wq8o6zvxuKKQntr9-113" value="(+)" style="text;html=1;align=center;verticalAlign=middle;resizable=0;points=[];autosize=1;strokeColor=none;fillColor=none;" parent="1" vertex="1">
          <mxGeometry x="3860" y="525.5" width="40" height="30" as="geometry" />
        </mxCell>
        <mxCell id="cG8_wq8o6zvxuKKQntr9-114" value="(+)" style="text;html=1;align=center;verticalAlign=middle;resizable=0;points=[];autosize=1;strokeColor=none;fillColor=none;" parent="1" vertex="1">
          <mxGeometry x="3710" y="515.5" width="40" height="30" as="geometry" />
        </mxCell>
        <mxCell id="cG8_wq8o6zvxuKKQntr9-115" value="(+)" style="text;html=1;align=center;verticalAlign=middle;resizable=0;points=[];autosize=1;strokeColor=none;fillColor=none;" parent="1" vertex="1">
          <mxGeometry x="3910" y="197.5" width="40" height="30" as="geometry" />
        </mxCell>
        <mxCell id="cG8_wq8o6zvxuKKQntr9-116" value="modify_data()" style="text;html=1;align=center;verticalAlign=middle;resizable=0;points=[];autosize=1;strokeColor=none;fillColor=none;" parent="1" vertex="1">
          <mxGeometry x="3290" y="295.5" width="100" height="30" as="geometry" />
        </mxCell>
        <mxCell id="cG8_wq8o6zvxuKKQntr9-117" value="text_file, code,&amp;nbsp;&lt;div&gt;food, f_price&lt;/div&gt;" style="html=1;verticalAlign=bottom;startArrow=oval;startFill=1;endArrow=block;startSize=8;curved=0;rounded=0;" parent="1" edge="1">
          <mxGeometry x="0.3333" y="60" width="60" relative="1" as="geometry">
            <mxPoint x="2849" y="287.5" as="sourcePoint" />
            <mxPoint x="2849" y="317.5" as="targetPoint" />
            <mxPoint as="offset" />
          </mxGeometry>
        </mxCell>
        <mxCell id="cG8_wq8o6zvxuKKQntr9-118" value="text_file, code,&lt;div&gt;&amp;nbsp;food, f_price&lt;/div&gt;" style="html=1;verticalAlign=bottom;startArrow=oval;startFill=1;endArrow=block;startSize=8;curved=0;rounded=0;" parent="1" edge="1">
          <mxGeometry x="0.3333" y="60" width="60" relative="1" as="geometry">
            <mxPoint x="2963.95" y="287.5" as="sourcePoint" />
            <mxPoint x="2963.95" y="317.5" as="targetPoint" />
            <mxPoint as="offset" />
          </mxGeometry>
        </mxCell>
        <mxCell id="cG8_wq8o6zvxuKKQntr9-119" value="text_file, code,&lt;div&gt;&amp;nbsp;food, f_price&lt;/div&gt;" style="html=1;verticalAlign=bottom;startArrow=oval;startFill=1;endArrow=block;startSize=8;curved=0;rounded=0;" parent="1" edge="1">
          <mxGeometry x="0.3333" y="60" width="60" relative="1" as="geometry">
            <mxPoint x="3075" y="295.5" as="sourcePoint" />
            <mxPoint x="3075" y="325.5" as="targetPoint" />
            <mxPoint as="offset" />
          </mxGeometry>
        </mxCell>
        <mxCell id="cG8_wq8o6zvxuKKQntr9-120" value="text_file, code,&amp;nbsp;&lt;div&gt;quantity, f_price&lt;/div&gt;" style="html=1;verticalAlign=bottom;startArrow=oval;startFill=1;endArrow=block;startSize=8;curved=0;rounded=0;" parent="1" edge="1">
          <mxGeometry x="0.3333" y="60" width="60" relative="1" as="geometry">
            <mxPoint x="3180" y="287.5" as="sourcePoint" />
            <mxPoint x="3180" y="317.5" as="targetPoint" />
            <mxPoint as="offset" />
          </mxGeometry>
        </mxCell>
        <mxCell id="cG8_wq8o6zvxuKKQntr9-121" value="12" style="ellipse;whiteSpace=wrap;html=1;" parent="1" vertex="1">
          <mxGeometry x="3586.25" y="657.5" width="20" height="20" as="geometry" />
        </mxCell>
        <mxCell id="cG8_wq8o6zvxuKKQntr9-122" value="clear_screen()" style="whiteSpace=wrap;html=1;" parent="1" vertex="1">
          <mxGeometry x="3316.25" y="742.5" width="90" height="20" as="geometry" />
        </mxCell>
        <mxCell id="cG8_wq8o6zvxuKKQntr9-123" value="display_data()" style="whiteSpace=wrap;html=1;" parent="1" vertex="1">
          <mxGeometry x="3416.25" y="742.5" width="80" height="30" as="geometry" />
        </mxCell>
        <mxCell id="cG8_wq8o6zvxuKKQntr9-124" value="text_file" style="html=1;verticalAlign=bottom;startArrow=oval;startFill=1;endArrow=block;startSize=8;curved=0;rounded=0;" parent="1" edge="1">
          <mxGeometry x="0.3333" y="30" width="60" relative="1" as="geometry">
            <mxPoint x="3476.25" y="702.5" as="sourcePoint" />
            <mxPoint x="3476.25" y="732.5" as="targetPoint" />
            <mxPoint as="offset" />
          </mxGeometry>
        </mxCell>
        <mxCell id="cG8_wq8o6zvxuKKQntr9-125" value="" style="endArrow=none;html=1;rounded=0;entryX=0.5;entryY=1;entryDx=0;entryDy=0;exitX=0.5;exitY=0;exitDx=0;exitDy=0;" parent="1" source="cG8_wq8o6zvxuKKQntr9-122" target="cG8_wq8o6zvxuKKQntr9-121" edge="1">
          <mxGeometry width="50" height="50" relative="1" as="geometry">
            <mxPoint x="3656.25" y="982.5" as="sourcePoint" />
            <mxPoint x="3706.25" y="932.5" as="targetPoint" />
            <Array as="points">
              <mxPoint x="3361.25" y="682.5" />
              <mxPoint x="3596.25" y="682.5" />
            </Array>
          </mxGeometry>
        </mxCell>
        <mxCell id="cG8_wq8o6zvxuKKQntr9-126" value="" style="endArrow=none;html=1;rounded=0;entryX=0.5;entryY=1;entryDx=0;entryDy=0;exitX=0.5;exitY=0;exitDx=0;exitDy=0;" parent="1" source="cG8_wq8o6zvxuKKQntr9-123" target="cG8_wq8o6zvxuKKQntr9-121" edge="1">
          <mxGeometry width="50" height="50" relative="1" as="geometry">
            <mxPoint x="3656.25" y="982.5" as="sourcePoint" />
            <mxPoint x="3706.25" y="932.5" as="targetPoint" />
            <Array as="points">
              <mxPoint x="3456.25" y="682.5" />
              <mxPoint x="3596.25" y="682.5" />
            </Array>
          </mxGeometry>
        </mxCell>
        <mxCell id="cG8_wq8o6zvxuKKQntr9-127" value="" style="rhombus;whiteSpace=wrap;html=1;" parent="1" vertex="1">
          <mxGeometry x="3686.25" y="712.5" width="20" height="20" as="geometry" />
        </mxCell>
        <mxCell id="cG8_wq8o6zvxuKKQntr9-128" value="" style="verticalLabelPosition=bottom;html=1;verticalAlign=top;strokeWidth=2;shape=mxgraph.lean_mapping.physical_pull;pointerEvents=1;" parent="1" vertex="1">
          <mxGeometry x="3678.75" y="717.5" width="35" height="15" as="geometry" />
        </mxCell>
        <mxCell id="cG8_wq8o6zvxuKKQntr9-129" value="" style="endArrow=none;html=1;rounded=0;entryX=0.5;entryY=1;entryDx=0;entryDy=0;" parent="1" target="cG8_wq8o6zvxuKKQntr9-121" edge="1">
          <mxGeometry width="50" height="50" relative="1" as="geometry">
            <mxPoint x="3596.25" y="682.5" as="sourcePoint" />
            <mxPoint x="3868.75" y="702.5" as="targetPoint" />
          </mxGeometry>
        </mxCell>
        <mxCell id="cG8_wq8o6zvxuKKQntr9-130" value="quit()" style="whiteSpace=wrap;html=1;" parent="1" vertex="1">
          <mxGeometry x="3546.25" y="802.5" width="45" height="20" as="geometry" />
        </mxCell>
        <mxCell id="cG8_wq8o6zvxuKKQntr9-131" value="check_code()" style="whiteSpace=wrap;html=1;" parent="1" vertex="1">
          <mxGeometry x="3606.25" y="807.5" width="80" height="20" as="geometry" />
        </mxCell>
        <mxCell id="cG8_wq8o6zvxuKKQntr9-132" value="" style="endArrow=none;html=1;rounded=0;entryX=0.5;entryY=1;entryDx=0;entryDy=0;exitX=0.5;exitY=0;exitDx=0;exitDy=0;" parent="1" source="cG8_wq8o6zvxuKKQntr9-130" target="cG8_wq8o6zvxuKKQntr9-127" edge="1">
          <mxGeometry width="50" height="50" relative="1" as="geometry">
            <mxPoint x="3598.75" y="792.5" as="sourcePoint" />
            <mxPoint x="3648.75" y="742.5" as="targetPoint" />
            <Array as="points">
              <mxPoint x="3568.75" y="782.5" />
              <mxPoint x="3631.75" y="782.5" />
              <mxPoint x="3631.75" y="752.5" />
              <mxPoint x="3696.75" y="752.5" />
            </Array>
          </mxGeometry>
        </mxCell>
        <mxCell id="cG8_wq8o6zvxuKKQntr9-133" value="" style="endArrow=none;html=1;rounded=0;entryX=0.5;entryY=1;entryDx=0;entryDy=0;exitX=0.5;exitY=0;exitDx=0;exitDy=0;" parent="1" source="cG8_wq8o6zvxuKKQntr9-131" target="cG8_wq8o6zvxuKKQntr9-128" edge="1">
          <mxGeometry width="50" height="50" relative="1" as="geometry">
            <mxPoint x="3598.75" y="792.5" as="sourcePoint" />
            <mxPoint x="3648.75" y="742.5" as="targetPoint" />
            <Array as="points">
              <mxPoint x="3648.75" y="782.5" />
              <mxPoint x="3631.75" y="782.5" />
              <mxPoint x="3631.75" y="752.5" />
              <mxPoint x="3696.75" y="752.5" />
            </Array>
          </mxGeometry>
        </mxCell>
        <mxCell id="cG8_wq8o6zvxuKKQntr9-134" value="(+)&lt;span style=&quot;color: rgba(0, 0, 0, 0); font-family: monospace; font-size: 0px; text-align: start;&quot;&gt;%3CmxGraphModel%3E%3Croot%3E%3CmxCell%20id%3D%220%22%2F%3E%3CmxCell%20id%3D%221%22%20parent%3D%220%22%2F%3E%3CmxCell%20id%3D%222%22%20value%3D%22%22%20style%3D%22verticalLabelPosition%3Dbottom%3Bhtml%3D1%3BverticalAlign%3Dtop%3BstrokeWidth%3D2%3Bshape%3Dmxgraph.lean_mapping.physical_pull%3BpointerEvents%3D1%3B%22%20vertex%3D%221%22%20parent%3D%221%22%3E%3CmxGeometry%20x%3D%221155%22%20y%3D%2250%22%20width%3D%2220%22%20height%3D%2210%22%20as%3D%22geometry%22%2F%3E%3C%2FmxCell%3E%3C%2Froot%3E%3C%2FmxGraphModel%3E&lt;/span&gt;" style="text;html=1;align=center;verticalAlign=middle;resizable=0;points=[];autosize=1;strokeColor=none;fillColor=none;" parent="1" vertex="1">
          <mxGeometry x="3611.25" y="777.5" width="40" height="30" as="geometry" />
        </mxCell>
        <mxCell id="cG8_wq8o6zvxuKKQntr9-135" value="text_file,&lt;div&gt;code&lt;/div&gt;" style="html=1;verticalAlign=bottom;startArrow=oval;startFill=1;endArrow=block;startSize=8;curved=0;rounded=0;" parent="1" edge="1">
          <mxGeometry x="0.3333" y="30" width="60" relative="1" as="geometry">
            <mxPoint x="3658.75" y="787.5" as="sourcePoint" />
            <mxPoint x="3658.75" y="802.5" as="targetPoint" />
            <mxPoint as="offset" />
          </mxGeometry>
        </mxCell>
        <mxCell id="cG8_wq8o6zvxuKKQntr9-138" value="delete()" style="whiteSpace=wrap;html=1;" parent="1" vertex="1">
          <mxGeometry x="3712.5" y="810" width="71.25" height="15" as="geometry" />
        </mxCell>
        <mxCell id="cG8_wq8o6zvxuKKQntr9-139" value="" style="endArrow=none;html=1;rounded=0;entryX=0.5;entryY=1;entryDx=0;entryDy=0;exitX=0.5;exitY=0;exitDx=0;exitDy=0;" parent="1" source="cG8_wq8o6zvxuKKQntr9-138" target="cG8_wq8o6zvxuKKQntr9-128" edge="1">
          <mxGeometry width="50" height="50" relative="1" as="geometry">
            <mxPoint x="3768.75" y="722.5" as="sourcePoint" />
            <mxPoint x="3818.75" y="672.5" as="targetPoint" />
            <Array as="points">
              <mxPoint x="3748.75" y="792.5" />
              <mxPoint x="3748.75" y="752.5" />
              <mxPoint x="3696.75" y="752.5" />
            </Array>
          </mxGeometry>
        </mxCell>
        <mxCell id="cG8_wq8o6zvxuKKQntr9-142" value="" style="endArrow=none;html=1;rounded=0;entryX=0.5;entryY=1;entryDx=0;entryDy=0;exitX=0.5;exitY=0;exitDx=0;exitDy=0;" parent="1" source="cG8_wq8o6zvxuKKQntr9-127" target="cG8_wq8o6zvxuKKQntr9-121" edge="1">
          <mxGeometry width="50" height="50" relative="1" as="geometry">
            <mxPoint x="3756.25" y="682.5" as="sourcePoint" />
            <mxPoint x="3806.25" y="632.5" as="targetPoint" />
            <Array as="points">
              <mxPoint x="3696.25" y="682.5" />
              <mxPoint x="3596.25" y="682.5" />
            </Array>
          </mxGeometry>
        </mxCell>
        <mxCell id="cG8_wq8o6zvxuKKQntr9-158" value="(+)" style="text;html=1;align=center;verticalAlign=middle;resizable=0;points=[];autosize=1;strokeColor=none;fillColor=none;" parent="1" vertex="1">
          <mxGeometry x="3723.5" y="477.5" width="40" height="30" as="geometry" />
        </mxCell>
        <mxCell id="cG8_wq8o6zvxuKKQntr9-159" value="(+)" style="text;html=1;align=center;verticalAlign=middle;resizable=0;points=[];autosize=1;strokeColor=none;fillColor=none;" parent="1" vertex="1">
          <mxGeometry x="3610" y="472.5" width="40" height="30" as="geometry" />
        </mxCell>
        <mxCell id="cG8_wq8o6zvxuKKQntr9-160" value="(+)" style="text;html=1;align=center;verticalAlign=middle;resizable=0;points=[];autosize=1;strokeColor=none;fillColor=none;" parent="1" vertex="1">
          <mxGeometry x="3873.5" y="472.5" width="40" height="30" as="geometry" />
        </mxCell>
        <mxCell id="cG8_wq8o6zvxuKKQntr9-161" value="(+)&lt;span style=&quot;color: rgba(0, 0, 0, 0); font-family: monospace; font-size: 0px; text-align: start;&quot;&gt;%3CmxGraphModel%3E%3Croot%3E%3CmxCell%20id%3D%220%22%2F%3E%3CmxCell%20id%3D%221%22%20parent%3D%220%22%2F%3E%3CmxCell%20id%3D%222%22%20value%3D%22%22%20style%3D%22verticalLabelPosition%3Dbottom%3Bhtml%3D1%3BverticalAlign%3Dtop%3BstrokeWidth%3D2%3Bshape%3Dmxgraph.lean_mapping.physical_pull%3BpointerEvents%3D1%3B%22%20vertex%3D%221%22%20parent%3D%221%22%3E%3CmxGeometry%20x%3D%221155%22%20y%3D%2250%22%20width%3D%2220%22%20height%3D%2210%22%20as%3D%22geometry%22%2F%3E%3C%2FmxCell%3E%3C%2Froot%3E%3C%2FmxGraphModel%3E&lt;/span&gt;" style="text;html=1;align=center;verticalAlign=middle;resizable=0;points=[];autosize=1;strokeColor=none;fillColor=none;" parent="1" vertex="1">
          <mxGeometry x="3675.25" y="747.5" width="40" height="30" as="geometry" />
        </mxCell>
        <mxCell id="cG8_wq8o6zvxuKKQntr9-164" value="(+)&lt;span style=&quot;color: rgba(0, 0, 0, 0); font-family: monospace; font-size: 0px; text-align: start;&quot;&gt;%3CmxGraphModel%3E%3Croot%3E%3CmxCell%20id%3D%220%22%2F%3E%3CmxCell%20id%3D%221%22%20parent%3D%220%22%2F%3E%3CmxCell%20id%3D%222%22%20value%3D%22%22%20style%3D%22verticalLabelPosition%3Dbottom%3Bhtml%3D1%3BverticalAlign%3Dtop%3BstrokeWidth%3D2%3Bshape%3Dmxgraph.lean_mapping.physical_pull%3BpointerEvents%3D1%3B%22%20vertex%3D%221%22%20parent%3D%221%22%3E%3CmxGeometry%20x%3D%221155%22%20y%3D%2250%22%20width%3D%2220%22%20height%3D%2210%22%20as%3D%22geometry%22%2F%3E%3C%2FmxCell%3E%3C%2Froot%3E%3C%2FmxGraphModel%3E&lt;/span&gt;" style="text;html=1;align=center;verticalAlign=middle;resizable=0;points=[];autosize=1;strokeColor=none;fillColor=none;" parent="1" vertex="1">
          <mxGeometry x="3777.5" y="157.5" width="40" height="30" as="geometry" />
        </mxCell>
        <mxCell id="cG8_wq8o6zvxuKKQntr9-165" value="(+)&lt;span style=&quot;color: rgba(0, 0, 0, 0); font-family: monospace; font-size: 0px; text-align: start;&quot;&gt;%3CmxGraphModel%3E%3Croot%3E%3CmxCell%20id%3D%220%22%2F%3E%3CmxCell%20id%3D%221%22%20parent%3D%220%22%2F%3E%3CmxCell%20id%3D%222%22%20value%3D%22%22%20style%3D%22verticalLabelPosition%3Dbottom%3Bhtml%3D1%3BverticalAlign%3Dtop%3BstrokeWidth%3D2%3Bshape%3Dmxgraph.lean_mapping.physical_pull%3BpointerEvents%3D1%3B%22%20vertex%3D%221%22%20parent%3D%221%22%3E%3CmxGeometry%20x%3D%221155%22%20y%3D%2250%22%20width%3D%2220%22%20height%3D%2210%22%20as%3D%22geometry%22%2F%3E%3C%2FmxCell%3E%3C%2Froot%3E%3C%2FmxGraphModel%3E&lt;/span&gt;" style="text;html=1;align=center;verticalAlign=middle;resizable=0;points=[];autosize=1;strokeColor=none;fillColor=none;" parent="1" vertex="1">
          <mxGeometry x="3921" y="152.5" width="40" height="30" as="geometry" />
        </mxCell>
        <mxCell id="cG8_wq8o6zvxuKKQntr9-166" value="delete_data()" style="text;html=1;align=center;verticalAlign=middle;resizable=0;points=[];autosize=1;strokeColor=none;fillColor=none;" parent="1" vertex="1">
          <mxGeometry x="3325" y="635.5" width="90" height="30" as="geometry" />
        </mxCell>
        <mxCell id="cG8_wq8o6zvxuKKQntr9-167" value="13" style="ellipse;whiteSpace=wrap;html=1;" parent="1" vertex="1">
          <mxGeometry x="3578" y="857.5" width="20" height="20" as="geometry" />
        </mxCell>
        <mxCell id="cG8_wq8o6zvxuKKQntr9-168" value="clear_screen()" style="whiteSpace=wrap;html=1;" parent="1" vertex="1">
          <mxGeometry x="3308" y="992.5" width="90" height="20" as="geometry" />
        </mxCell>
        <mxCell id="cG8_wq8o6zvxuKKQntr9-169" value="display_data()" style="whiteSpace=wrap;html=1;" parent="1" vertex="1">
          <mxGeometry x="3408" y="992.5" width="80" height="30" as="geometry" />
        </mxCell>
        <mxCell id="cG8_wq8o6zvxuKKQntr9-170" value="text_file" style="html=1;verticalAlign=bottom;startArrow=oval;startFill=1;endArrow=block;startSize=8;curved=0;rounded=0;" parent="1" edge="1">
          <mxGeometry x="0.3333" y="30" width="60" relative="1" as="geometry">
            <mxPoint x="3468" y="952.5" as="sourcePoint" />
            <mxPoint x="3468" y="982.5" as="targetPoint" />
            <mxPoint as="offset" />
          </mxGeometry>
        </mxCell>
        <mxCell id="cG8_wq8o6zvxuKKQntr9-171" value="" style="endArrow=none;html=1;rounded=0;entryX=0.5;entryY=1;entryDx=0;entryDy=0;exitX=0.5;exitY=0;exitDx=0;exitDy=0;" parent="1" source="cG8_wq8o6zvxuKKQntr9-168" target="cG8_wq8o6zvxuKKQntr9-167" edge="1">
          <mxGeometry width="50" height="50" relative="1" as="geometry">
            <mxPoint x="3648" y="1232.5" as="sourcePoint" />
            <mxPoint x="3698" y="1182.5" as="targetPoint" />
            <Array as="points">
              <mxPoint x="3353" y="932.5" />
              <mxPoint x="3588" y="932.5" />
            </Array>
          </mxGeometry>
        </mxCell>
        <mxCell id="cG8_wq8o6zvxuKKQntr9-172" value="" style="endArrow=none;html=1;rounded=0;entryX=0.5;entryY=1;entryDx=0;entryDy=0;exitX=0.5;exitY=0;exitDx=0;exitDy=0;" parent="1" source="cG8_wq8o6zvxuKKQntr9-169" target="cG8_wq8o6zvxuKKQntr9-167" edge="1">
          <mxGeometry width="50" height="50" relative="1" as="geometry">
            <mxPoint x="3648" y="1232.5" as="sourcePoint" />
            <mxPoint x="3698" y="1182.5" as="targetPoint" />
            <Array as="points">
              <mxPoint x="3448" y="932.5" />
              <mxPoint x="3588" y="932.5" />
            </Array>
          </mxGeometry>
        </mxCell>
        <mxCell id="cG8_wq8o6zvxuKKQntr9-173" value="" style="rhombus;whiteSpace=wrap;html=1;" parent="1" vertex="1">
          <mxGeometry x="3678" y="962.5" width="20" height="20" as="geometry" />
        </mxCell>
        <mxCell id="cG8_wq8o6zvxuKKQntr9-174" value="" style="verticalLabelPosition=bottom;html=1;verticalAlign=top;strokeWidth=2;shape=mxgraph.lean_mapping.physical_pull;pointerEvents=1;" parent="1" vertex="1">
          <mxGeometry x="3670.5" y="967.5" width="35" height="15" as="geometry" />
        </mxCell>
        <mxCell id="cG8_wq8o6zvxuKKQntr9-175" value="" style="endArrow=none;html=1;rounded=0;entryX=0.5;entryY=1;entryDx=0;entryDy=0;" parent="1" target="cG8_wq8o6zvxuKKQntr9-167" edge="1">
          <mxGeometry width="50" height="50" relative="1" as="geometry">
            <mxPoint x="3588" y="932.5" as="sourcePoint" />
            <mxPoint x="3860.5" y="952.5" as="targetPoint" />
          </mxGeometry>
        </mxCell>
        <mxCell id="cG8_wq8o6zvxuKKQntr9-176" value="quit()" style="whiteSpace=wrap;html=1;" parent="1" vertex="1">
          <mxGeometry x="3626.25" y="1062.5" width="45" height="20" as="geometry" />
        </mxCell>
        <mxCell id="cG8_wq8o6zvxuKKQntr9-177" value="check_code()" style="whiteSpace=wrap;html=1;" parent="1" vertex="1">
          <mxGeometry x="3690" y="1067.5" width="80" height="20" as="geometry" />
        </mxCell>
        <mxCell id="cG8_wq8o6zvxuKKQntr9-180" value="(+)&lt;span style=&quot;color: rgba(0, 0, 0, 0); font-family: monospace; font-size: 0px; text-align: start;&quot;&gt;%3CmxGraphModel%3E%3Croot%3E%3CmxCell%20id%3D%220%22%2F%3E%3CmxCell%20id%3D%221%22%20parent%3D%220%22%2F%3E%3CmxCell%20id%3D%222%22%20value%3D%22%22%20style%3D%22verticalLabelPosition%3Dbottom%3Bhtml%3D1%3BverticalAlign%3Dtop%3BstrokeWidth%3D2%3Bshape%3Dmxgraph.lean_mapping.physical_pull%3BpointerEvents%3D1%3B%22%20vertex%3D%221%22%20parent%3D%221%22%3E%3CmxGeometry%20x%3D%221155%22%20y%3D%2250%22%20width%3D%2220%22%20height%3D%2210%22%20as%3D%22geometry%22%2F%3E%3C%2FmxCell%3E%3C%2Froot%3E%3C%2FmxGraphModel%3E&lt;/span&gt;" style="text;html=1;align=center;verticalAlign=middle;resizable=0;points=[];autosize=1;strokeColor=none;fillColor=none;" parent="1" vertex="1">
          <mxGeometry x="3668" y="1012.5" width="40" height="30" as="geometry" />
        </mxCell>
        <mxCell id="cG8_wq8o6zvxuKKQntr9-181" value="text_file,&lt;div&gt;code&lt;/div&gt;" style="html=1;verticalAlign=bottom;startArrow=oval;startFill=1;endArrow=block;startSize=8;curved=0;rounded=0;" parent="1" edge="1">
          <mxGeometry x="0.3333" y="30" width="60" relative="1" as="geometry">
            <mxPoint x="3738.75" y="1047.5" as="sourcePoint" />
            <mxPoint x="3738.75" y="1062.5" as="targetPoint" />
            <mxPoint as="offset" />
          </mxGeometry>
        </mxCell>
        <mxCell id="cG8_wq8o6zvxuKKQntr9-188" value="" style="endArrow=none;html=1;rounded=0;entryX=0.5;entryY=1;entryDx=0;entryDy=0;exitX=0.5;exitY=0;exitDx=0;exitDy=0;" parent="1" source="cG8_wq8o6zvxuKKQntr9-173" target="cG8_wq8o6zvxuKKQntr9-167" edge="1">
          <mxGeometry width="50" height="50" relative="1" as="geometry">
            <mxPoint x="3748" y="932.5" as="sourcePoint" />
            <mxPoint x="3798" y="882.5" as="targetPoint" />
            <Array as="points">
              <mxPoint x="3688" y="932.5" />
              <mxPoint x="3588" y="932.5" />
            </Array>
          </mxGeometry>
        </mxCell>
        <mxCell id="cG8_wq8o6zvxuKKQntr9-204" value="" style="endArrow=none;html=1;rounded=0;entryX=0.5;entryY=1;entryDx=0;entryDy=0;exitX=0.5;exitY=0;exitDx=0;exitDy=0;" parent="1" source="cG8_wq8o6zvxuKKQntr9-176" target="cG8_wq8o6zvxuKKQntr9-174" edge="1">
          <mxGeometry width="50" height="50" relative="1" as="geometry">
            <mxPoint x="3520" y="987.5" as="sourcePoint" />
            <mxPoint x="3570" y="937.5" as="targetPoint" />
            <Array as="points">
              <mxPoint x="3650" y="1017.5" />
              <mxPoint x="3690" y="1017.5" />
            </Array>
          </mxGeometry>
        </mxCell>
        <mxCell id="cG8_wq8o6zvxuKKQntr9-205" value="" style="endArrow=none;html=1;rounded=0;entryX=0.5;entryY=1;entryDx=0;entryDy=0;exitX=0.5;exitY=0;exitDx=0;exitDy=0;" parent="1" source="cG8_wq8o6zvxuKKQntr9-177" target="cG8_wq8o6zvxuKKQntr9-174" edge="1">
          <mxGeometry width="50" height="50" relative="1" as="geometry">
            <mxPoint x="3730" y="1027.5" as="sourcePoint" />
            <mxPoint x="3780" y="977.5" as="targetPoint" />
            <Array as="points">
              <mxPoint x="3730" y="1017.5" />
              <mxPoint x="3690" y="1017.5" />
            </Array>
          </mxGeometry>
        </mxCell>
        <mxCell id="cG8_wq8o6zvxuKKQntr9-206" value="calculate()" style="whiteSpace=wrap;html=1;" parent="1" vertex="1">
          <mxGeometry x="3695" y="1117.5" width="70" height="20" as="geometry" />
        </mxCell>
        <mxCell id="cG8_wq8o6zvxuKKQntr9-207" value="" style="endArrow=none;html=1;rounded=0;entryX=0.5;entryY=1;entryDx=0;entryDy=0;exitX=0.5;exitY=0;exitDx=0;exitDy=0;" parent="1" source="cG8_wq8o6zvxuKKQntr9-206" target="cG8_wq8o6zvxuKKQntr9-177" edge="1">
          <mxGeometry width="50" height="50" relative="1" as="geometry">
            <mxPoint x="3730" y="1097.5" as="sourcePoint" />
            <mxPoint x="3780" y="1047.5" as="targetPoint" />
          </mxGeometry>
        </mxCell>
        <mxCell id="cG8_wq8o6zvxuKKQntr9-208" value="5" style="ellipse;whiteSpace=wrap;html=1;" parent="1" vertex="1">
          <mxGeometry x="1965" y="40" width="20" height="20" as="geometry" />
        </mxCell>
        <mxCell id="cG8_wq8o6zvxuKKQntr9-209" value="clear_screen()" style="whiteSpace=wrap;html=1;" parent="1" vertex="1">
          <mxGeometry x="1730" y="150" width="120" height="60" as="geometry" />
        </mxCell>
        <mxCell id="cG8_wq8o6zvxuKKQntr9-210" value="display_fast_food_details()" style="whiteSpace=wrap;html=1;" parent="1" vertex="1">
          <mxGeometry x="1880" y="150" width="190" height="60" as="geometry" />
        </mxCell>
        <mxCell id="cG8_wq8o6zvxuKKQntr9-211" value="select ch" style="whiteSpace=wrap;html=1;" parent="1" vertex="1">
          <mxGeometry x="2150" y="150" width="120" height="60" as="geometry" />
        </mxCell>
        <mxCell id="cG8_wq8o6zvxuKKQntr9-212" value="" style="rhombus;whiteSpace=wrap;html=1;" parent="1" vertex="1">
          <mxGeometry x="2200" y="110" width="20" height="20" as="geometry" />
        </mxCell>
        <mxCell id="cG8_wq8o6zvxuKKQntr9-213" value="ch" style="html=1;verticalAlign=bottom;startArrow=oval;startFill=1;endArrow=block;startSize=8;curved=0;rounded=0;" parent="1" edge="1">
          <mxGeometry x="0.3333" y="20" width="60" relative="1" as="geometry">
            <mxPoint x="2240" y="120" as="sourcePoint" />
            <mxPoint x="2240" y="150" as="targetPoint" />
            <mxPoint as="offset" />
          </mxGeometry>
        </mxCell>
        <mxCell id="cG8_wq8o6zvxuKKQntr9-214" value="&amp;nbsp;track()" style="whiteSpace=wrap;html=1;" parent="1" vertex="1">
          <mxGeometry x="1730" y="360" width="80" height="30" as="geometry" />
        </mxCell>
        <UserObject label="&amp;nbsp;track()" link="track(&quot;fun_fun.txt&quot;, 3, &quot;08:00 AM - 04:00 PM&quot;)" id="cG8_wq8o6zvxuKKQntr9-216">
          <mxCell style="whiteSpace=wrap;html=1;" parent="1" vertex="1">
            <mxGeometry x="1840" y="370" width="100" height="20" as="geometry" />
          </mxCell>
        </UserObject>
        <UserObject label="&amp;nbsp;track()" link="track(&quot;mrs_yau.txt&quot;, 7, &quot;11:15 AM - 09:30 PM&quot;)" id="cG8_wq8o6zvxuKKQntr9-218">
          <mxCell style="whiteSpace=wrap;html=1;" parent="1" vertex="1">
            <mxGeometry x="1978" y="367.5" width="90" height="30" as="geometry" />
          </mxCell>
        </UserObject>
        <mxCell id="cG8_wq8o6zvxuKKQntr9-220" value="&amp;nbsp;track()" style="whiteSpace=wrap;html=1;" parent="1" vertex="1">
          <mxGeometry x="2100" y="367.5" width="90" height="30" as="geometry" />
        </mxCell>
        <mxCell id="cG8_wq8o6zvxuKKQntr9-221" value="handle invalid option()" style="whiteSpace=wrap;html=1;" parent="1" vertex="1">
          <mxGeometry x="2340" y="352.5" width="120" height="60" as="geometry" />
        </mxCell>
        <mxCell id="cG8_wq8o6zvxuKKQntr9-222" value="" style="endArrow=none;html=1;rounded=0;entryX=0.5;entryY=1;entryDx=0;entryDy=0;exitX=0.5;exitY=0;exitDx=0;exitDy=0;" parent="1" source="cG8_wq8o6zvxuKKQntr9-210" target="cG8_wq8o6zvxuKKQntr9-208" edge="1">
          <mxGeometry width="50" height="50" relative="1" as="geometry">
            <mxPoint x="2120" y="380" as="sourcePoint" />
            <mxPoint x="2170" y="330" as="targetPoint" />
          </mxGeometry>
        </mxCell>
        <mxCell id="cG8_wq8o6zvxuKKQntr9-223" value="" style="endArrow=none;html=1;rounded=0;entryX=0.5;entryY=1;entryDx=0;entryDy=0;exitX=0.5;exitY=0;exitDx=0;exitDy=0;" parent="1" source="cG8_wq8o6zvxuKKQntr9-209" target="cG8_wq8o6zvxuKKQntr9-208" edge="1">
          <mxGeometry width="50" height="50" relative="1" as="geometry">
            <mxPoint x="2120" y="380" as="sourcePoint" />
            <mxPoint x="2170" y="330" as="targetPoint" />
            <Array as="points">
              <mxPoint x="1790" y="90" />
              <mxPoint x="1975" y="90" />
            </Array>
          </mxGeometry>
        </mxCell>
        <mxCell id="cG8_wq8o6zvxuKKQntr9-224" value="" style="endArrow=none;html=1;rounded=0;entryX=0.5;entryY=1;entryDx=0;entryDy=0;exitX=0.5;exitY=0;exitDx=0;exitDy=0;" parent="1" source="cG8_wq8o6zvxuKKQntr9-212" target="cG8_wq8o6zvxuKKQntr9-208" edge="1">
          <mxGeometry width="50" height="50" relative="1" as="geometry">
            <mxPoint x="2140" y="250" as="sourcePoint" />
            <mxPoint x="2190" y="200" as="targetPoint" />
            <Array as="points">
              <mxPoint x="2210" y="90" />
              <mxPoint x="1975" y="90" />
            </Array>
          </mxGeometry>
        </mxCell>
        <mxCell id="cG8_wq8o6zvxuKKQntr9-225" value="" style="endArrow=none;html=1;rounded=0;entryX=0.5;entryY=1;entryDx=0;entryDy=0;exitX=0.5;exitY=0;exitDx=0;exitDy=0;" parent="1" source="cG8_wq8o6zvxuKKQntr9-211" target="cG8_wq8o6zvxuKKQntr9-212" edge="1">
          <mxGeometry width="50" height="50" relative="1" as="geometry">
            <mxPoint x="2140" y="250" as="sourcePoint" />
            <mxPoint x="2190" y="200" as="targetPoint" />
          </mxGeometry>
        </mxCell>
        <mxCell id="cG8_wq8o6zvxuKKQntr9-226" value="" style="endArrow=none;html=1;rounded=0;entryX=0.5;entryY=1;entryDx=0;entryDy=0;exitX=0.5;exitY=0;exitDx=0;exitDy=0;" parent="1" source="cG8_wq8o6zvxuKKQntr9-214" target="cG8_wq8o6zvxuKKQntr9-211" edge="1">
          <mxGeometry width="50" height="50" relative="1" as="geometry">
            <mxPoint x="2100" y="220" as="sourcePoint" />
            <mxPoint x="2150" y="170" as="targetPoint" />
            <Array as="points">
              <mxPoint x="1770" y="240" />
              <mxPoint x="2210" y="240" />
            </Array>
          </mxGeometry>
        </mxCell>
        <mxCell id="cG8_wq8o6zvxuKKQntr9-227" value="" style="endArrow=none;html=1;rounded=0;entryX=0.5;entryY=1;entryDx=0;entryDy=0;exitX=0.5;exitY=0;exitDx=0;exitDy=0;" parent="1" source="cG8_wq8o6zvxuKKQntr9-216" target="cG8_wq8o6zvxuKKQntr9-211" edge="1">
          <mxGeometry width="50" height="50" relative="1" as="geometry">
            <mxPoint x="2100" y="220" as="sourcePoint" />
            <mxPoint x="2150" y="170" as="targetPoint" />
            <Array as="points">
              <mxPoint x="1890" y="240" />
              <mxPoint x="2210" y="240" />
            </Array>
          </mxGeometry>
        </mxCell>
        <mxCell id="cG8_wq8o6zvxuKKQntr9-230" value="" style="endArrow=none;html=1;rounded=0;entryX=0.5;entryY=1;entryDx=0;entryDy=0;exitX=0.5;exitY=0;exitDx=0;exitDy=0;" parent="1" source="cG8_wq8o6zvxuKKQntr9-218" target="cG8_wq8o6zvxuKKQntr9-211" edge="1">
          <mxGeometry width="50" height="50" relative="1" as="geometry">
            <mxPoint x="2100" y="220" as="sourcePoint" />
            <mxPoint x="2150" y="170" as="targetPoint" />
            <Array as="points">
              <mxPoint x="2020" y="240" />
              <mxPoint x="2210" y="240" />
            </Array>
          </mxGeometry>
        </mxCell>
        <mxCell id="cG8_wq8o6zvxuKKQntr9-232" value="" style="endArrow=none;html=1;rounded=0;entryX=0.5;entryY=1;entryDx=0;entryDy=0;exitX=0.5;exitY=0;exitDx=0;exitDy=0;" parent="1" source="cG8_wq8o6zvxuKKQntr9-220" target="cG8_wq8o6zvxuKKQntr9-211" edge="1">
          <mxGeometry width="50" height="50" relative="1" as="geometry">
            <mxPoint x="2100" y="220" as="sourcePoint" />
            <mxPoint x="2150" y="170" as="targetPoint" />
            <Array as="points">
              <mxPoint x="2140" y="240" />
              <mxPoint x="2210" y="240" />
            </Array>
          </mxGeometry>
        </mxCell>
        <mxCell id="cG8_wq8o6zvxuKKQntr9-233" value="" style="endArrow=none;html=1;rounded=0;entryX=0.5;entryY=1;entryDx=0;entryDy=0;exitX=0.5;exitY=0;exitDx=0;exitDy=0;" parent="1" source="cG8_wq8o6zvxuKKQntr9-221" target="cG8_wq8o6zvxuKKQntr9-211" edge="1">
          <mxGeometry width="50" height="50" relative="1" as="geometry">
            <mxPoint x="2100" y="220" as="sourcePoint" />
            <mxPoint x="2150" y="170" as="targetPoint" />
            <Array as="points">
              <mxPoint x="2400" y="240" />
              <mxPoint x="2210" y="240" />
            </Array>
          </mxGeometry>
        </mxCell>
        <mxCell id="cG8_wq8o6zvxuKKQntr9-234" value="" style="verticalLabelPosition=bottom;html=1;verticalAlign=top;strokeWidth=2;shape=mxgraph.lean_mapping.physical_pull;pointerEvents=1;" parent="1" vertex="1">
          <mxGeometry x="1965" y="70" width="20" height="10" as="geometry" />
        </mxCell>
        <mxCell id="cG8_wq8o6zvxuKKQntr9-235" value="&lt;span style=&quot;font-size: 12px; text-wrap-mode: wrap; background-color: rgb(236, 236, 236);&quot;&gt;&quot;burger.txt&quot;, 2,&amp;nbsp;&lt;/span&gt;&lt;div&gt;&lt;span style=&quot;font-size: 12px; text-wrap-mode: wrap; background-color: rgb(236, 236, 236);&quot;&gt;&quot;8.00AM - 11.00 PM&quot;&lt;/span&gt;&lt;/div&gt;" style="html=1;verticalAlign=bottom;startArrow=oval;startFill=1;endArrow=block;startSize=8;curved=0;rounded=0;" parent="1" edge="1">
          <mxGeometry x="0.3333" y="50" width="60" relative="1" as="geometry">
            <mxPoint x="1760" y="330" as="sourcePoint" />
            <mxPoint x="1760" y="360" as="targetPoint" />
            <mxPoint as="offset" />
          </mxGeometry>
        </mxCell>
        <mxCell id="cG8_wq8o6zvxuKKQntr9-237" value="&lt;span style=&quot;font-size: 12px; text-wrap-mode: wrap; background-color: rgb(236, 236, 236);&quot;&gt;&quot;domino.txt&quot;, 8, &quot;10.30AM - 11.00 PM&quot;&lt;/span&gt;" style="html=1;verticalAlign=bottom;startArrow=oval;startFill=1;endArrow=block;startSize=8;curved=0;rounded=0;" parent="1" edge="1">
          <mxGeometry x="0.6667" y="50" width="60" relative="1" as="geometry">
            <mxPoint x="1880" y="327.5" as="sourcePoint" />
            <mxPoint x="1880" y="357.5" as="targetPoint" />
            <mxPoint as="offset" />
          </mxGeometry>
        </mxCell>
        <mxCell id="cG8_wq8o6zvxuKKQntr9-239" value="&lt;span style=&quot;font-size: 12px; text-wrap-mode: wrap; background-color: rgb(236, 236, 236);&quot;&gt;&quot;snowy.txt&quot;, 2, &quot;12:00PM - 09:00 PM&quot;&lt;/span&gt;" style="html=1;verticalAlign=bottom;startArrow=oval;startFill=1;endArrow=block;startSize=8;curved=0;rounded=0;" parent="1" edge="1">
          <mxGeometry x="0.3333" y="50" width="60" relative="1" as="geometry">
            <mxPoint x="2010" y="330" as="sourcePoint" />
            <mxPoint x="2010" y="360" as="targetPoint" />
            <mxPoint as="offset" />
          </mxGeometry>
        </mxCell>
        <mxCell id="cG8_wq8o6zvxuKKQntr9-240" value="&lt;span style=&quot;font-size: 12px; text-wrap-mode: wrap; background-color: rgb(236, 236, 236);&quot;&gt;&quot;kfc.txt&quot;, 8, &quot;08:00 AM - 11:00 PM&quot;&lt;/span&gt;" style="html=1;verticalAlign=bottom;startArrow=oval;startFill=1;endArrow=block;startSize=8;curved=0;rounded=0;" parent="1" edge="1">
          <mxGeometry x="0.6667" y="60" width="60" relative="1" as="geometry">
            <mxPoint x="2130" y="332.5" as="sourcePoint" />
            <mxPoint x="2130" y="362.5" as="targetPoint" />
            <mxPoint as="offset" />
          </mxGeometry>
        </mxCell>
        <mxCell id="cG8_wq8o6zvxuKKQntr9-242" value="&amp;nbsp;track()" style="whiteSpace=wrap;html=1;" parent="1" vertex="1">
          <mxGeometry x="2220" y="370" width="90" height="30" as="geometry" />
        </mxCell>
        <mxCell id="cG8_wq8o6zvxuKKQntr9-243" value="&lt;span style=&quot;font-size: 12px; text-wrap-mode: wrap; background-color: rgb(236, 236, 236);&quot;&gt;&quot;pizza.txt&quot;, 1, &quot;10:00 AM - 11:00 PM&quot;&lt;/span&gt;" style="html=1;verticalAlign=bottom;startArrow=oval;startFill=1;endArrow=block;startSize=8;curved=0;rounded=0;" parent="1" edge="1">
          <mxGeometry x="0.6471" y="60" width="60" relative="1" as="geometry">
            <mxPoint x="2250" y="335" as="sourcePoint" />
            <mxPoint x="2250" y="365" as="targetPoint" />
            <mxPoint as="offset" />
          </mxGeometry>
        </mxCell>
        <mxCell id="cG8_wq8o6zvxuKKQntr9-244" value="" style="endArrow=none;html=1;rounded=0;entryX=0.5;entryY=1;entryDx=0;entryDy=0;exitX=0.5;exitY=0;exitDx=0;exitDy=0;" parent="1" source="cG8_wq8o6zvxuKKQntr9-242" target="cG8_wq8o6zvxuKKQntr9-211" edge="1">
          <mxGeometry width="50" height="50" relative="1" as="geometry">
            <mxPoint x="2230" y="440" as="sourcePoint" />
            <mxPoint x="2280" y="390" as="targetPoint" />
            <Array as="points">
              <mxPoint x="2260" y="240" />
              <mxPoint x="2210" y="240" />
            </Array>
          </mxGeometry>
        </mxCell>
        <mxCell id="cG8_wq8o6zvxuKKQntr9-245" value="9" style="ellipse;whiteSpace=wrap;html=1;" parent="1" vertex="1">
          <mxGeometry x="950" y="422.5" width="20" height="20" as="geometry" />
        </mxCell>
        <mxCell id="cG8_wq8o6zvxuKKQntr9-248" value="9" style="ellipse;whiteSpace=wrap;html=1;" parent="1" vertex="1">
          <mxGeometry x="1430" y="422.5" width="20" height="20" as="geometry" />
        </mxCell>
        <mxCell id="cG8_wq8o6zvxuKKQntr9-249" value="9" style="ellipse;whiteSpace=wrap;html=1;" parent="1" vertex="1">
          <mxGeometry x="1350" y="607.5" width="20" height="20" as="geometry" />
        </mxCell>
        <mxCell id="cG8_wq8o6zvxuKKQntr9-250" value="9" style="ellipse;whiteSpace=wrap;html=1;" parent="1" vertex="1">
          <mxGeometry x="1280" y="420" width="20" height="20" as="geometry" />
        </mxCell>
        <mxCell id="cG8_wq8o6zvxuKKQntr9-251" value="9" style="ellipse;whiteSpace=wrap;html=1;" parent="1" vertex="1">
          <mxGeometry x="1210" y="615.5" width="20" height="20" as="geometry" />
        </mxCell>
        <mxCell id="cG8_wq8o6zvxuKKQntr9-252" value="9" style="ellipse;whiteSpace=wrap;html=1;" parent="1" vertex="1">
          <mxGeometry x="1120" y="420" width="20" height="20" as="geometry" />
        </mxCell>
        <mxCell id="cG8_wq8o6zvxuKKQntr9-253" value="9" style="ellipse;whiteSpace=wrap;html=1;" parent="1" vertex="1">
          <mxGeometry x="1040" y="600" width="20" height="20" as="geometry" />
        </mxCell>
        <mxCell id="cG8_wq8o6zvxuKKQntr9-258" value="" style="endArrow=none;html=1;rounded=0;entryX=0.5;entryY=1;entryDx=0;entryDy=0;exitX=0.5;exitY=0;exitDx=0;exitDy=0;" parent="1" source="cG8_wq8o6zvxuKKQntr9-245" target="5HcHVTi433muCl0VbMVD-40" edge="1">
          <mxGeometry width="50" height="50" relative="1" as="geometry">
            <mxPoint x="990" y="485" as="sourcePoint" />
            <mxPoint x="1040" y="435" as="targetPoint" />
          </mxGeometry>
        </mxCell>
        <mxCell id="cG8_wq8o6zvxuKKQntr9-259" value="" style="endArrow=none;html=1;rounded=0;entryX=0.5;entryY=1;entryDx=0;entryDy=0;exitX=0.5;exitY=0;exitDx=0;exitDy=0;" parent="1" source="cG8_wq8o6zvxuKKQntr9-251" target="5HcHVTi433muCl0VbMVD-43" edge="1">
          <mxGeometry width="50" height="50" relative="1" as="geometry">
            <mxPoint x="1190" y="620" as="sourcePoint" />
            <mxPoint x="1240" y="570" as="targetPoint" />
          </mxGeometry>
        </mxCell>
        <mxCell id="cG8_wq8o6zvxuKKQntr9-260" value="" style="endArrow=none;html=1;rounded=0;entryX=0.5;entryY=1;entryDx=0;entryDy=0;exitX=0.5;exitY=0;exitDx=0;exitDy=0;" parent="1" source="cG8_wq8o6zvxuKKQntr9-253" target="5HcHVTi433muCl0VbMVD-41" edge="1">
          <mxGeometry width="50" height="50" relative="1" as="geometry">
            <mxPoint x="1190" y="620" as="sourcePoint" />
            <mxPoint x="1240" y="570" as="targetPoint" />
          </mxGeometry>
        </mxCell>
        <mxCell id="cG8_wq8o6zvxuKKQntr9-261" value="" style="endArrow=none;html=1;rounded=0;entryX=0.5;entryY=1;entryDx=0;entryDy=0;exitX=0.5;exitY=0;exitDx=0;exitDy=0;" parent="1" source="cG8_wq8o6zvxuKKQntr9-252" target="5HcHVTi433muCl0VbMVD-42" edge="1">
          <mxGeometry width="50" height="50" relative="1" as="geometry">
            <mxPoint x="1190" y="620" as="sourcePoint" />
            <mxPoint x="1240" y="570" as="targetPoint" />
          </mxGeometry>
        </mxCell>
        <mxCell id="cG8_wq8o6zvxuKKQntr9-262" value="" style="endArrow=none;html=1;rounded=0;entryX=0.5;entryY=1;entryDx=0;entryDy=0;exitX=0.5;exitY=0;exitDx=0;exitDy=0;" parent="1" source="cG8_wq8o6zvxuKKQntr9-250" target="5HcHVTi433muCl0VbMVD-44" edge="1">
          <mxGeometry width="50" height="50" relative="1" as="geometry">
            <mxPoint x="1190" y="620" as="sourcePoint" />
            <mxPoint x="1240" y="570" as="targetPoint" />
          </mxGeometry>
        </mxCell>
        <mxCell id="cG8_wq8o6zvxuKKQntr9-263" value="" style="endArrow=none;html=1;rounded=0;entryX=0.5;entryY=1;entryDx=0;entryDy=0;exitX=0.5;exitY=0;exitDx=0;exitDy=0;" parent="1" source="cG8_wq8o6zvxuKKQntr9-249" target="5HcHVTi433muCl0VbMVD-45" edge="1">
          <mxGeometry width="50" height="50" relative="1" as="geometry">
            <mxPoint x="1190" y="620" as="sourcePoint" />
            <mxPoint x="1240" y="570" as="targetPoint" />
          </mxGeometry>
        </mxCell>
        <mxCell id="cG8_wq8o6zvxuKKQntr9-264" value="" style="endArrow=none;html=1;rounded=0;entryX=0.5;entryY=1;entryDx=0;entryDy=0;exitX=0.5;exitY=0;exitDx=0;exitDy=0;" parent="1" source="cG8_wq8o6zvxuKKQntr9-248" target="5HcHVTi433muCl0VbMVD-46" edge="1">
          <mxGeometry width="50" height="50" relative="1" as="geometry">
            <mxPoint x="1190" y="620" as="sourcePoint" />
            <mxPoint x="1240" y="570" as="targetPoint" />
          </mxGeometry>
        </mxCell>
        <mxCell id="cG8_wq8o6zvxuKKQntr9-266" value="9" style="ellipse;whiteSpace=wrap;html=1;" parent="1" vertex="1">
          <mxGeometry x="1760" y="422.5" width="20" height="20" as="geometry" />
        </mxCell>
        <mxCell id="cG8_wq8o6zvxuKKQntr9-267" value="9" style="ellipse;whiteSpace=wrap;html=1;" parent="1" vertex="1">
          <mxGeometry x="2255" y="430" width="20" height="20" as="geometry" />
        </mxCell>
        <mxCell id="cG8_wq8o6zvxuKKQntr9-268" value="9" style="ellipse;whiteSpace=wrap;html=1;" parent="1" vertex="1">
          <mxGeometry x="2135" y="422.5" width="20" height="20" as="geometry" />
        </mxCell>
        <mxCell id="cG8_wq8o6zvxuKKQntr9-269" value="9" style="ellipse;whiteSpace=wrap;html=1;" parent="1" vertex="1">
          <mxGeometry x="2013" y="420" width="20" height="20" as="geometry" />
        </mxCell>
        <mxCell id="cG8_wq8o6zvxuKKQntr9-270" value="9" style="ellipse;whiteSpace=wrap;html=1;" parent="1" vertex="1">
          <mxGeometry x="1880" y="420" width="20" height="20" as="geometry" />
        </mxCell>
        <mxCell id="cG8_wq8o6zvxuKKQntr9-271" value="" style="endArrow=none;html=1;rounded=0;entryX=0.5;entryY=1;entryDx=0;entryDy=0;exitX=0.5;exitY=0;exitDx=0;exitDy=0;" parent="1" source="cG8_wq8o6zvxuKKQntr9-267" target="cG8_wq8o6zvxuKKQntr9-242" edge="1">
          <mxGeometry width="50" height="50" relative="1" as="geometry">
            <mxPoint x="2050" y="640" as="sourcePoint" />
            <mxPoint x="2100" y="590" as="targetPoint" />
          </mxGeometry>
        </mxCell>
        <mxCell id="cG8_wq8o6zvxuKKQntr9-272" value="" style="endArrow=none;html=1;rounded=0;entryX=0.5;entryY=1;entryDx=0;entryDy=0;exitX=0.5;exitY=0;exitDx=0;exitDy=0;" parent="1" source="cG8_wq8o6zvxuKKQntr9-268" target="cG8_wq8o6zvxuKKQntr9-220" edge="1">
          <mxGeometry width="50" height="50" relative="1" as="geometry">
            <mxPoint x="2050" y="640" as="sourcePoint" />
            <mxPoint x="2100" y="590" as="targetPoint" />
          </mxGeometry>
        </mxCell>
        <mxCell id="cG8_wq8o6zvxuKKQntr9-273" value="" style="endArrow=none;html=1;rounded=0;entryX=0.5;entryY=1;entryDx=0;entryDy=0;exitX=0.5;exitY=0;exitDx=0;exitDy=0;" parent="1" source="cG8_wq8o6zvxuKKQntr9-269" target="cG8_wq8o6zvxuKKQntr9-218" edge="1">
          <mxGeometry width="50" height="50" relative="1" as="geometry">
            <mxPoint x="2050" y="640" as="sourcePoint" />
            <mxPoint x="2100" y="590" as="targetPoint" />
          </mxGeometry>
        </mxCell>
        <mxCell id="cG8_wq8o6zvxuKKQntr9-274" value="" style="endArrow=none;html=1;rounded=0;entryX=0.5;entryY=1;entryDx=0;entryDy=0;exitX=0.5;exitY=0;exitDx=0;exitDy=0;" parent="1" source="cG8_wq8o6zvxuKKQntr9-270" target="cG8_wq8o6zvxuKKQntr9-216" edge="1">
          <mxGeometry width="50" height="50" relative="1" as="geometry">
            <mxPoint x="2050" y="640" as="sourcePoint" />
            <mxPoint x="2100" y="590" as="targetPoint" />
          </mxGeometry>
        </mxCell>
        <mxCell id="cG8_wq8o6zvxuKKQntr9-275" value="" style="endArrow=none;html=1;rounded=0;entryX=0.5;entryY=1;entryDx=0;entryDy=0;exitX=0.5;exitY=0;exitDx=0;exitDy=0;" parent="1" source="cG8_wq8o6zvxuKKQntr9-266" target="cG8_wq8o6zvxuKKQntr9-214" edge="1">
          <mxGeometry width="50" height="50" relative="1" as="geometry">
            <mxPoint x="2050" y="640" as="sourcePoint" />
            <mxPoint x="2100" y="590" as="targetPoint" />
          </mxGeometry>
        </mxCell>
        <mxCell id="g8w-PdpHYkOICpf6Rbsh-33" value="st.restaurant()" style="text;html=1;align=center;verticalAlign=middle;resizable=0;points=[];autosize=1;strokeColor=none;fillColor=none;" vertex="1" parent="1">
          <mxGeometry x="10" y="18" width="100" height="30" as="geometry" />
        </mxCell>
        <mxCell id="g8w-PdpHYkOICpf6Rbsh-34" value="st.cafe()" style="text;html=1;align=center;verticalAlign=middle;resizable=0;points=[];autosize=1;strokeColor=none;fillColor=none;" vertex="1" parent="1">
          <mxGeometry x="865" y="28" width="70" height="30" as="geometry" />
        </mxCell>
        <mxCell id="g8w-PdpHYkOICpf6Rbsh-35" value="st.fast_food()" style="text;html=1;align=center;verticalAlign=middle;resizable=0;points=[];autosize=1;strokeColor=none;fillColor=none;" vertex="1" parent="1">
          <mxGeometry x="1675" y="28" width="90" height="30" as="geometry" />
        </mxCell>
      </root>
    </mxGraphModel>
  </diagram>
</mxfile>
